<?xml version="1.0" encoding="utf-8"?>
<!-- Generator: Adobe Illustrator 26.1.0, SVG Export Plug-In . SVG Version: 6.00 Build 0)  -->
<svg version="1.1" id="Layer_1" xmlns="http://www.w3.org/2000/svg" xmlns:xlink="http://www.w3.org/1999/xlink" x="0px" y="0px"
	 viewBox="0 0 24 24" style="enable-background:new 0 0 24 24;" xml:space="preserve">
<style type="text/css">
	.st0{fill:#0707EF;}
</style>
<g id="_20.Arrow_Right">
	<path class="st0" d="M12,24C5.37,24,0,18.63,0,12S5.37,0,12,0s12,5.37,12,12C23.99,18.62,18.62,23.99,12,24z M12,2
		C6.48,2,2,6.48,2,12s4.48,10,10,10s10-4.48,10-10C21.99,6.48,17.52,2.01,12,2z"/>
	<polygon class="st0" points="13.71,16.71 12.29,15.29 15.59,12 12.29,8.71 13.71,7.29 18.41,12 	"/>
	<rect x="6" y="11" class="st0" width="11" height="2"/>
</g>
</svg>
