<?xml version="1.0" encoding="utf-8"?>
<!-- Generator: Adobe Illustrator 26.1.0, SVG Export Plug-In . SVG Version: 6.00 Build 0)  -->
<svg version="1.1" id="Layer_1" xmlns="http://www.w3.org/2000/svg" xmlns:xlink="http://www.w3.org/1999/xlink" x="0px" y="0px"
	 viewBox="0 0 24 24" style="enable-background:new 0 0 24 24;" xml:space="preserve">
<style type="text/css">
	.st0{fill:#FFFFFF;}
</style>
<g id="_20.Arrow_Right">
	<path class="st0" d="M12,24C5.4,24,0,18.6,0,12S5.4,0,12,0s12,5.4,12,12C24,18.6,18.6,24,12,24z M12,2C6.5,2,2,6.5,2,12
		s4.5,10,10,10s10-4.5,10-10C22,6.5,17.5,2,12,2z"/>
	<polygon class="st0" points="13.7,16.7 12.3,15.3 15.6,12 12.3,8.7 13.7,7.3 18.4,12 	"/>
	<rect x="6" y="11" class="st0" width="11" height="2"/>
</g>
</svg>
