<?xml version="1.0" encoding="utf-8"?>
<!-- Generator: Adobe Illustrator 26.1.0, SVG Export Plug-In . SVG Version: 6.00 Build 0)  -->
<svg version="1.1" id="Layer_1" xmlns="http://www.w3.org/2000/svg" xmlns:xlink="http://www.w3.org/1999/xlink" x="0px" y="0px"
	 viewBox="0 0 64.8 64.5" style="enable-background:new 0 0 64.8 64.5;" xml:space="preserve">
<style type="text/css">
	.st0{fill:#FFFFFF;}
</style>
<g>
	<circle class="st0" cx="-77.7" cy="25.3" r="2.4"/>
	<circle class="st0" cx="-92.7" cy="25.3" r="2.4"/>
	<path class="st0" d="M-64.4,33.8l10.8-6.1l-10.8-6.1l3.9-9.1c2.7-6.3-3.6-12.7-9.9-9.9l-9.1,3.9l-6.1-10.8l-6.1,10.8l-9.1-3.9
		c-6.3-2.7-12.7,3.6-9.9,9.9l3.9,9.1l-10.8,6.1l10.8,6.1l-3.9,9.1c-2.7,6.3,3.6,12.7,9.9,9.9l9.1-3.9l6.1,10.8l6.1-10.8l9.1,3.9
		c6.3,2.7,12.7-3.6,9.9-9.9L-64.4,33.8z M-87.4,32.8c0.8,0,1.4,0.6,1.4,1.4c0,0.5,0.4,0.9,0.9,0.9s0.9-0.4,0.9-0.9
		c0-0.8,0.6-1.4,1.4-1.4s1.4,0.6,1.4,1.4c-0.2,2-1.8,3.7-3.9,3.7c-2.1,0-3.7-1.7-3.7-3.7C-88.9,33.4-88.2,32.8-87.4,32.8z
		 M-92.6,31.6c-3.5,0-6.4-2.9-6.4-6.4s2.8-6.4,6.4-6.4c3.5,0,6.4,2.8,6.4,6.4C-86.2,28.8-89.1,31.6-92.6,31.6z M-84.1,25.3
		c0-3.5,2.8-6.4,6.4-6.4c3.5,0,6.4,2.8,6.4,6.4c0,3.5-2.9,6.4-6.4,6.4C-81.2,31.6-84.1,28.8-84.1,25.3z"/>
</g>
<path class="st0" d="M41.2,23.5L32.4-0.1l-8.8,23.5L0.1,32.3L23.6,41l8.8,23.5L41.2,41l23.5-8.8L41.2,23.5z M29.6,32.2
	c0,0.7-0.6,1.3-1.3,1.3c-0.7,0-1.3-0.6-1.3-1.3c0-0.3,0.1-0.6,0.3-0.9c-0.2-0.2-0.3-0.5-0.3-0.9c0-0.7,0.6-1.3,1.3-1.3
	c0.7,0,1.3,0.6,1.3,1.3c0,0.3-0.1,0.6-0.3,0.9C29.4,31.6,29.6,31.9,29.6,32.2z M32.4,37.4c-1.2,0-2.1-0.9-2.1-2.1
	c0-0.4,0.4-0.8,0.8-0.8s0.8,0.4,0.8,0.8c0,0.3,0.2,0.5,0.5,0.5c0.3,0,0.5-0.2,0.5-0.5c0-0.4,0.4-0.8,0.8-0.8c0.4,0,0.8,0.4,0.8,0.8
	C34.5,36.4,33.6,37.4,32.4,37.4z M37.9,32.2c0,0.7-0.6,1.3-1.3,1.3c-0.7,0-1.3-0.6-1.3-1.3c0-0.3,0.1-0.6,0.3-0.9
	c-0.2-0.2-0.3-0.5-0.3-0.9c0-0.7,0.6-1.3,1.3-1.3c0.7,0,1.3,0.6,1.3,1.3c0,0.3-0.1,0.6-0.3,0.9C37.8,31.6,37.9,31.9,37.9,32.2z"/>
</svg>
