<?xml version="1.0" encoding="utf-8"?>
<!-- Generator: Adobe Illustrator 26.1.0, SVG Export Plug-In . SVG Version: 6.00 Build 0)  -->
<svg version="1.1" id="Layer_1" xmlns="http://www.w3.org/2000/svg" xmlns:xlink="http://www.w3.org/1999/xlink" x="0px" y="0px"
	 viewBox="0 0 64 64" style="enable-background:new 0 0 64 64;" xml:space="preserve">
<style type="text/css">
	.st0{fill:#FFFFFF;}
</style>
<g>
	<circle class="st0" cx="-73" cy="22.8" r="2.6"/>
	<circle class="st0" cx="-88.9" cy="22.8" r="2.6"/>
	<path class="st0" d="M-65.3,41.9c8.8,0,15.9-7.1,15.9-15.9s-7.1-15.9-15.9-15.9h-0.1c-0.1-8.8-7.2-15.9-16-15.9
		s-15.9,7.1-15.9,15.9h-0.1c-8.9-0.1-16,7.1-16,15.9s7.1,15.9,15.9,15.9h0.1c0.1,8.8,7.2,15.9,15.9,15.9c8.8,0,15.9-7.1,15.9-15.9
		C-65.4,41.9-65.4,41.9-65.3,41.9z M-88.8,29.6c-3.7,0-6.7-3.1-6.7-6.7c0-3.8,3-6.7,6.7-6.7c3.7,0,6.7,3,6.7,6.7
		S-85.1,29.6-88.8,29.6z M-81.8,32.3c0,0.5,0.4,0.9,0.9,0.9s0.9-0.4,0.9-0.9c0-0.9,0.7-1.5,1.5-1.5c0.9,0,1.5,0.7,1.5,1.5
		c-0.2,2.1-1.9,3.9-4.1,3.9c-2.2,0-3.9-1.8-3.9-3.9c0-0.9,0.7-1.5,1.5-1.5C-82.5,30.8-81.8,31.5-81.8,32.3z M-73,29.6
		c-3.8,0-6.7-3-6.7-6.7s3-6.7,6.7-6.7c3.7,0,6.7,3,6.7,6.7S-69.3,29.6-73,29.6z"/>
</g>
<path class="st0" d="M48.6,17.7c-1.6,0.3-3,1.1-4.2,2c0.9-1.2,1.7-2.6,1.9-4.1C47.5,9.1,43.1,0.5,32,0.5S16.5,9.1,17.7,15.7
	c0.3,1.5,1.1,2.9,1.9,4.1c-1.2-0.9-2.7-1.8-4.2-2C8.8,16.6,0.2,21,0.2,32.1s8.6,15.5,15.2,14.3c1.5-0.3,2.8-1,4-1.8
	c-0.8,1.1-1.4,2.4-1.7,3.7c-1.2,6.6,3.2,15.2,14.3,15.2s15.5-8.6,14.3-15.2c-0.2-1.4-0.9-2.6-1.7-3.7c1.1,0.8,2.5,1.6,4,1.8
	c6.6,1.2,15.2-3.2,15.2-14.3S55.2,16.6,48.6,17.7z M29.1,31c0,0.7-0.6,1.3-1.3,1.3c-0.7,0-1.3-0.6-1.3-1.3c0-0.3,0.1-0.6,0.3-0.9
	c-0.2-0.2-0.3-0.5-0.3-0.9c0-0.7,0.6-1.3,1.3-1.3c0.7,0,1.3,0.6,1.3,1.3c0,0.3-0.1,0.6-0.3,0.9C29,30.3,29.1,30.6,29.1,31z M32,36.1
	c-1.2,0-2.1-0.9-2.1-2.1c0-0.4,0.4-0.8,0.8-0.8c0.4,0,0.8,0.4,0.8,0.8c0,0.3,0.2,0.5,0.5,0.5c0.3,0,0.5-0.2,0.5-0.5
	c0-0.4,0.4-0.8,0.8-0.8c0.4,0,0.8,0.4,0.8,0.8C34.1,35.2,33.2,36.1,32,36.1z M37.5,31c0,0.7-0.6,1.3-1.3,1.3c-0.7,0-1.3-0.6-1.3-1.3
	c0-0.3,0.1-0.6,0.3-0.9c-0.2-0.2-0.3-0.5-0.3-0.9c0-0.7,0.6-1.3,1.3-1.3c0.7,0,1.3,0.6,1.3,1.3c0,0.3-0.1,0.6-0.3,0.9
	C37.4,30.3,37.5,30.6,37.5,31z"/>
</svg>
