<?xml version="1.0" encoding="utf-8"?>
<!-- Generator: Adobe Illustrator 26.1.0, SVG Export Plug-In . SVG Version: 6.00 Build 0)  -->
<svg version="1.1" id="Layer_1" xmlns="http://www.w3.org/2000/svg" xmlns:xlink="http://www.w3.org/1999/xlink" x="0px" y="0px"
	 viewBox="0 0 64 65" style="enable-background:new 0 0 64 65;" xml:space="preserve">
<style type="text/css">
	.st0{fill:#0000FF;}
</style>
<g>
	<g>
		<path class="st0" d="M57.8,43.7c8.3-4.7,8.3-16.7,0-21.4l0,0l0,0c2.5-9.2-5.9-17.7-15.1-15.1l0,0l-0.8-1.5
			c-4.3-7.7-15.4-7.7-19.7,0l-0.8,1.5l0,0C12.1,4.7,3.7,13.1,6.2,22.3l0,0l0,0C-2.1,27-2.1,39,6.2,43.7l0,0l0,0
			c-2.5,9.2,5.9,17.7,15.1,15.1l0,0l0,0c4.7,8.3,16.7,8.3,21.4,0l0,0l0,0C51.9,61.3,60.3,52.9,57.8,43.7L57.8,43.7L57.8,43.7z
			 M22.6,36.5c-4.4,0-8-3.6-8-8s3.6-8,8-8s8,3.6,8,8S27,36.5,22.6,36.5z M32,44.5c-2.6,0-4.7-2.1-4.7-4.7c0-1,0.8-1.8,1.8-1.8
			s1.8,0.8,1.8,1.8c0,0.6,0.5,1.1,1.1,1.1c0.6,0,1.1-0.5,1.1-1.1c0-1,0.8-1.8,1.8-1.8s1.8,0.8,1.8,1.8C36.7,42.4,34.6,44.5,32,44.5z
			 M41.4,36.5c-4.4,0-8-3.6-8-8s3.6-8,8-8s8,3.6,8,8S45.8,36.5,41.4,36.5z"/>
	</g>
	<g>
		<circle class="st0" cx="41.4" cy="28.5" r="3"/>
	</g>
	<g>
		<circle class="st0" cx="22.6" cy="28.5" r="3"/>
	</g>
</g>
</svg>
