<?xml version="1.0" encoding="utf-8"?>
<!-- Generator: Adobe Illustrator 26.1.0, SVG Export Plug-In . SVG Version: 6.00 Build 0)  -->
<svg version="1.1" id="Layer_1" xmlns="http://www.w3.org/2000/svg" xmlns:xlink="http://www.w3.org/1999/xlink" x="0px" y="0px"
	 viewBox="0 0 322 322" style="enable-background:new 0 0 322 322;" xml:space="preserve">
<style type="text/css">
	.st0{fill:#FFFFFF;}
</style>
<g>
	<g>
		<path d="M-950.99,215.31c40.87-23.13,40.87-82,0-105.13l0,0v0c12.54-45.25-29.09-86.88-74.34-74.34l0,0l-4.13-7.31
			c-21.31-37.65-75.55-37.65-96.86,0l-4.13,7.31l0,0c-45.25-12.54-86.88,29.09-74.34,74.34l0,0l0,0c-40.87,23.13-40.87,82,0,105.13
			l0,0l0,0c-12.54,45.25,29.09,86.88,74.34,74.34l0,0v0c23.13,40.87,82,40.87,105.13,0v0l0,0
			C-980.07,302.19-938.45,260.57-950.99,215.31L-950.99,215.31L-950.99,215.31z M-1124.14,180.18c-21.82,0-39.5-17.68-39.5-39.5
			s17.68-39.5,39.5-39.5c21.82,0,39.5,17.68,39.5,39.5S-1102.32,180.18-1124.14,180.18z M-1077.89,219.43
			c-12.78,0-23.17-10.4-23.17-23.17c0-4.88,3.95-8.83,8.83-8.83s8.83,3.95,8.83,8.83c0,3.04,2.48,5.52,5.52,5.52
			s5.52-2.48,5.52-5.52c0-4.88,3.95-8.83,8.83-8.83c4.88,0,8.83,3.95,8.83,8.83C-1054.72,209.03-1065.11,219.43-1077.89,219.43z
			 M-1031.64,180.18c-21.82,0-39.5-17.68-39.5-39.5s17.68-39.5,39.5-39.5c21.82,0,39.5,17.68,39.5,39.5
			S-1009.82,180.18-1031.64,180.18z"/>
	</g>
	<g>
		<circle cx="-1031.64" cy="140.68" r="15"/>
	</g>
	<g>
		<circle cx="-1124.14" cy="140.68" r="15"/>
	</g>
</g>
<polygon points="-625.98,-39.28 -578.14,45.23 -484.56,19.3 -510.49,112.88 -425.98,160.72 -510.49,208.55 -484.56,302.14 
	-578.14,276.2 -625.98,360.72 -673.81,276.2 -767.4,302.14 -741.46,208.55 -825.98,160.72 -741.46,112.88 -767.4,19.3 
	-673.81,45.23 "/>
<g>
	<g>
		<g>
			<circle class="st0" cx="-672.23" cy="141.09" r="39.5"/>
		</g>
		<g>
			<circle class="st0" cx="-579.73" cy="141.09" r="39.5"/>
		</g>
		<g>
			<circle cx="-579.73" cy="141.09" r="15"/>
		</g>
		<g>
			<circle cx="-672.23" cy="141.09" r="15"/>
		</g>
	</g>
	<path class="st0" d="M-625.98,219.84c-12.78,0-23.17-10.4-23.17-23.17c0-4.88,3.95-8.83,8.83-8.83c4.88,0,8.83,3.95,8.83,8.83
		c0,3.04,2.47,5.52,5.52,5.52s5.52-2.48,5.52-5.52c0-4.88,3.95-8.83,8.83-8.83s8.83,3.95,8.83,8.83
		C-602.81,209.45-613.2,219.84-625.98,219.84z"/>
</g>
<g>
	<circle cx="-220.5" cy="166.5" r="160"/>
	<g>
		<g>
			<g>
				<circle class="st0" cx="-266.75" cy="146.88" r="39.5"/>
			</g>
			<g>
				<circle class="st0" cx="-174.25" cy="146.88" r="39.5"/>
			</g>
			<g>
				<circle cx="-174.25" cy="146.88" r="15"/>
			</g>
			<g>
				<circle cx="-266.75" cy="146.88" r="15"/>
			</g>
		</g>
		<path class="st0" d="M-220.5,225.62c-12.78,0-23.17-10.4-23.17-23.17c0-4.88,3.95-8.83,8.83-8.83c4.88,0,8.83,3.95,8.83,8.83
			c0,3.04,2.48,5.52,5.52,5.52s5.52-2.48,5.52-5.52c0-4.88,3.95-8.83,8.83-8.83c4.88,0,8.83,3.95,8.83,8.83
			C-197.33,215.23-207.72,225.62-220.5,225.62z"/>
	</g>
</g>
<g>
	<g>
		<path d="M302.28,127.65L302.28,127.65c-15.23-8.62-22.63-26.49-17.96-43.35v0c7.91-28.56-18.36-54.83-46.91-46.91h0
			c-16.86,4.67-34.73-2.73-43.35-17.96v0c-14.6-25.79-51.75-25.79-66.34,0v0c-8.62,15.23-26.49,22.63-43.35,17.96h0
			C55.81,29.47,29.54,55.74,37.45,84.3v0c4.67,16.86-2.73,34.73-17.96,43.35h0c-25.79,14.6-25.79,51.75,0,66.34l0,0
			c15.22,8.62,22.63,26.49,17.96,43.35v0c-7.91,28.56,18.36,54.83,46.91,46.91h0c16.86-4.67,34.73,2.73,43.35,17.96v0
			c14.6,25.79,51.75,25.79,66.34,0v0c8.62-15.23,26.49-22.63,43.35-17.96h0c28.56,7.91,54.83-18.36,46.91-46.91v0
			c-4.67-16.86,2.73-34.73,17.96-43.35l0,0C328.07,179.4,328.07,142.25,302.28,127.65z M114.64,180.7c-21.82,0-39.5-17.68-39.5-39.5
			s17.68-39.5,39.5-39.5c21.82,0,39.5,17.68,39.5,39.5S136.45,180.7,114.64,180.7z M160.89,219.95c-12.78,0-23.17-10.4-23.17-23.17
			c0-4.88,3.95-8.83,8.83-8.83c4.88,0,8.83,3.95,8.83,8.83c0,3.04,2.47,5.52,5.52,5.52s5.52-2.47,5.52-5.52
			c0-4.88,3.95-8.83,8.83-8.83s8.83,3.95,8.83,8.83C184.06,209.55,173.67,219.95,160.89,219.95z M207.14,180.7
			c-21.82,0-39.5-17.68-39.5-39.5s17.68-39.5,39.5-39.5c21.82,0,39.5,17.68,39.5,39.5S228.95,180.7,207.14,180.7z"/>
	</g>
	<g>
		<path d="M196.53,130.59c-5.86,5.86-5.86,15.36,0,21.21c5.86,5.86,15.36,5.86,21.21,0c5.86-5.86,5.86-15.36,0-21.21
			S202.39,124.73,196.53,130.59z"/>
	</g>
	<g>
		<circle cx="114.64" cy="141.2" r="15"/>
	</g>
</g>
</svg>
