<?xml version="1.0" encoding="utf-8"?>
<!-- Generator: Adobe Illustrator 26.1.0, SVG Export Plug-In . SVG Version: 6.00 Build 0)  -->
<svg version="1.1" id="Layer_1" xmlns="http://www.w3.org/2000/svg" xmlns:xlink="http://www.w3.org/1999/xlink" x="0px" y="0px"
	 viewBox="0 0 64 64" style="enable-background:new 0 0 64 64;" xml:space="preserve">
<style type="text/css">
	.st0{fill:#0000FF;}
</style>
<g>
	<g>
		<path class="st0" d="M64,32l-13.5-7.6l4.1-15l-15,4.1L32,0l-7.6,13.5l-15-4.1l4.1,15L0,32l13.5,7.6l-4.1,15l15-4.1L32,64l7.6-13.5
			l15,4.1l-4.1-15L64,32z M18.3,28.9c0-3.5,2.8-6.3,6.3-6.3s6.3,2.8,6.3,6.3s-2.8,6.3-6.3,6.3S18.3,32.4,18.3,28.9z M32,41.5
			c-2,0-3.7-1.7-3.7-3.7c0-0.8,0.6-1.4,1.4-1.4s1.4,0.6,1.4,1.4c0,0.5,0.4,0.9,0.9,0.9s0.9-0.4,0.9-0.9c0-0.8,0.6-1.4,1.4-1.4
			c0.8,0,1.4,0.6,1.4,1.4C35.7,39.8,34,41.5,32,41.5z M39.4,35.2c-3.5,0-6.3-2.8-6.3-6.3s2.8-6.3,6.3-6.3c3.5,0,6.3,2.8,6.3,6.3
			S42.9,35.2,39.4,35.2z"/>
	</g>
	<g>
		<ellipse class="st0" cx="39.4" cy="28.9" rx="2.4" ry="2.4"/>
	</g>
	<g>
		<circle class="st0" cx="24.6" cy="28.9" r="2.4"/>
	</g>
</g>
</svg>
