<?xml version="1.0" encoding="utf-8"?>
<!-- Generator: Adobe Illustrator 26.1.0, SVG Export Plug-In . SVG Version: 6.00 Build 0)  -->
<svg version="1.1" id="Layer_1" xmlns="http://www.w3.org/2000/svg" xmlns:xlink="http://www.w3.org/1999/xlink" x="0px" y="0px"
	 viewBox="0 0 65.1 65.1" style="enable-background:new 0 0 65.1 65.1;" xml:space="preserve">
<style type="text/css">
	.st0{fill:#FF0000;}
</style>
<g>
	<g>
		<path class="st0" d="M-20.9,32.5l-13.5-7.6l4.1-15l-15,4.1l-7.6-13.5L-60.5,14l-15-4.1l4.1,15l-13.5,7.6l13.5,7.6l-4.1,15l15-4.1
			l7.6,13.5l7.6-13.5l15,4.1l-4.1-15L-20.9,32.5z M-66.6,29.4c0-3.5,2.8-6.3,6.3-6.3s6.3,2.8,6.3,6.3s-2.8,6.3-6.3,6.3
			S-66.6,32.9-66.6,29.4z M-52.9,42c-2,0-3.7-1.7-3.7-3.7c0-0.8,0.6-1.4,1.4-1.4s1.4,0.6,1.4,1.4c0,0.5,0.4,0.9,0.9,0.9
			s0.9-0.4,0.9-0.9c0-0.8,0.6-1.4,1.4-1.4c0.8,0,1.4,0.6,1.4,1.4C-49.2,40.3-50.9,42-52.9,42z M-45.5,35.7c-3.5,0-6.3-2.8-6.3-6.3
			s2.8-6.3,6.3-6.3s6.3,2.8,6.3,6.3S-42,35.7-45.5,35.7z"/>
	</g>
	<g>
		<ellipse class="st0" cx="-45.5" cy="29.4" rx="2.4" ry="2.4"/>
	</g>
	<g>
		<circle class="st0" cx="-60.3" cy="29.4" r="2.4"/>
	</g>
</g>
<path class="st0" d="M65.1,32.2l-21-4.6L55.3,9.3L37.2,20.9L32.2,0l-4.6,21L9.3,9.8l11.6,18.1L0,32.9l21,4.6L9.8,55.8l18.1-11.6
	l5,20.9l4.6-21l18.3,11.3L44.2,37.2L65.1,32.2z M29.7,32.5c0,0.7-0.6,1.3-1.3,1.3c-0.7,0-1.3-0.6-1.3-1.3c0-0.3,0.1-0.6,0.3-0.9
	c-0.2-0.2-0.3-0.5-0.3-0.9c0-0.7,0.6-1.3,1.3-1.3c0.7,0,1.3,0.6,1.3,1.3c0,0.3-0.1,0.6-0.3,0.9C29.6,31.9,29.7,32.2,29.7,32.5z
	 M32.5,37.6c-1.2,0-2.1-0.9-2.1-2.1c0-0.4,0.4-0.8,0.8-0.8c0.4,0,0.8,0.4,0.8,0.8c0,0.3,0.2,0.5,0.5,0.5c0.3,0,0.5-0.2,0.5-0.5
	c0-0.4,0.4-0.8,0.8-0.8s0.8,0.4,0.8,0.8C34.6,36.7,33.7,37.6,32.5,37.6z M38.1,32.5c0,0.7-0.6,1.3-1.3,1.3c-0.7,0-1.3-0.6-1.3-1.3
	c0-0.3,0.1-0.6,0.3-0.9c-0.2-0.2-0.3-0.5-0.3-0.9c0-0.7,0.6-1.3,1.3-1.3c0.7,0,1.3,0.6,1.3,1.3c0,0.3-0.1,0.6-0.3,0.9
	C37.9,31.9,38.1,32.2,38.1,32.5z"/>
</svg>
