<?xml version="1.0" encoding="utf-8"?>
<!-- Generator: Adobe Illustrator 26.1.0, SVG Export Plug-In . SVG Version: 6.00 Build 0)  -->
<svg version="1.1" id="Layer_1" xmlns="http://www.w3.org/2000/svg" xmlns:xlink="http://www.w3.org/1999/xlink" x="0px" y="0px"
	 viewBox="0 0 400 400" style="enable-background:new 0 0 400 400;" xml:space="preserve">
<g>
	<g>
		<path d="M-124.99,254.31c40.87-23.13,40.87-82,0-105.13l0,0v0c12.54-45.25-29.09-86.88-74.34-74.34l0,0l-4.13-7.31
			c-21.31-37.65-75.55-37.65-96.86,0l-4.13,7.31l0,0c-45.25-12.54-86.88,29.09-74.34,74.34l0,0l0,0c-40.87,23.13-40.87,82,0,105.13
			l0,0l0,0c-12.54,45.25,29.09,86.88,74.34,74.34l0,0l0,0c23.13,40.87,82,40.87,105.13,0l0,0l0,0
			C-154.07,341.19-112.45,299.57-124.99,254.31L-124.99,254.31L-124.99,254.31z M-298.14,219.18c-21.82,0-39.5-17.68-39.5-39.5
			s17.68-39.5,39.5-39.5c21.82,0,39.5,17.68,39.5,39.5S-276.32,219.18-298.14,219.18z M-251.89,258.43
			c-12.78,0-23.17-10.4-23.17-23.17c0-4.88,3.95-8.83,8.83-8.83s8.83,3.95,8.83,8.83c0,3.04,2.47,5.52,5.52,5.52
			c3.04,0,5.52-2.48,5.52-5.52c0-4.88,3.95-8.83,8.83-8.83s8.83,3.95,8.83,8.83C-228.72,248.03-239.11,258.43-251.89,258.43z
			 M-205.64,219.18c-21.82,0-39.5-17.68-39.5-39.5s17.68-39.5,39.5-39.5c21.82,0,39.5,17.68,39.5,39.5S-183.82,219.18-205.64,219.18
			z"/>
	</g>
	<g>
		<circle cx="-205.64" cy="179.68" r="15"/>
	</g>
	<g>
		<circle cx="-298.14" cy="179.68" r="15"/>
	</g>
</g>
<g>
	<g>
		<path d="M400.02,199.72l-84.52-47.84l25.94-93.59l-93.59,25.94L200.02-0.28l-47.84,84.52L58.6,58.3l25.94,93.59L0.02,199.72
			l84.52,47.84L58.6,341.14l93.59-25.94l47.84,84.52l47.84-84.52l93.59,25.94l-25.94-93.59L400.02,199.72z M114.27,180.09
			c0-21.82,17.68-39.5,39.5-39.5s39.5,17.68,39.5,39.5s-17.68,39.5-39.5,39.5S114.27,201.91,114.27,180.09z M200.02,258.84
			c-12.78,0-23.17-10.4-23.17-23.17c0-4.88,3.95-8.83,8.83-8.83c4.88,0,8.83,3.95,8.83,8.83c0,3.04,2.47,5.52,5.52,5.52
			s5.52-2.47,5.52-5.52c0-4.88,3.95-8.83,8.83-8.83s8.83,3.95,8.83,8.83C223.19,248.45,212.8,258.84,200.02,258.84z M246.27,219.59
			c-21.82,0-39.5-17.68-39.5-39.5s17.68-39.5,39.5-39.5s39.5,17.68,39.5,39.5S268.09,219.59,246.27,219.59z"/>
	</g>
	<g>
		<circle cx="246.27" cy="180.09" r="15"/>
	</g>
	<g>
		<circle cx="153.77" cy="180.09" r="15"/>
	</g>
</g>
<g>
	<g>
		<path d="M605.5,45.5c-88.37,0-160,71.63-160,160s71.63,160,160,160s160-71.63,160-160S693.87,45.5,605.5,45.5z M519.75,185.88
			c0-21.82,17.68-39.5,39.5-39.5s39.5,17.68,39.5,39.5s-17.68,39.5-39.5,39.5S519.75,207.69,519.75,185.88z M605.5,264.62
			c-12.78,0-23.17-10.4-23.17-23.17c0-4.88,3.95-8.83,8.83-8.83s8.83,3.95,8.83,8.83c0,3.04,2.47,5.52,5.52,5.52
			s5.52-2.47,5.52-5.52c0-4.88,3.95-8.83,8.83-8.83s8.83,3.95,8.83,8.83C628.67,254.23,618.28,264.62,605.5,264.62z M651.75,225.38
			c-21.82,0-39.5-17.68-39.5-39.5s17.68-39.5,39.5-39.5s39.5,17.68,39.5,39.5S673.57,225.38,651.75,225.38z"/>
	</g>
	<g>
		<circle cx="651.75" cy="185.87" r="15"/>
	</g>
	<g>
		<circle cx="559.25" cy="185.88" r="15"/>
	</g>
</g>
<g>
	<g>
		<path d="M1128.28,166.65L1128.28,166.65c-15.23-8.62-22.63-26.49-17.96-43.35v0c7.91-28.56-18.36-54.83-46.91-46.91h0
			c-16.86,4.67-34.73-2.73-43.35-17.96v0c-14.6-25.79-51.75-25.79-66.34,0v0c-8.62,15.23-26.49,22.63-43.35,17.96h0
			c-28.56-7.91-54.83,18.36-46.91,46.91v0c4.67,16.86-2.73,34.73-17.96,43.35h0c-25.79,14.6-25.79,51.75,0,66.34l0,0
			c15.22,8.62,22.63,26.49,17.96,43.35v0c-7.91,28.56,18.36,54.83,46.91,46.91h0c16.86-4.67,34.73,2.73,43.35,17.96v0
			c14.6,25.79,51.75,25.79,66.34,0v0c8.62-15.23,26.49-22.63,43.35-17.96h0c28.56,7.91,54.83-18.36,46.91-46.91v0
			c-4.67-16.86,2.73-34.73,17.96-43.35l0,0C1154.07,218.4,1154.07,181.25,1128.28,166.65z M940.64,219.7
			c-21.82,0-39.5-17.68-39.5-39.5s17.68-39.5,39.5-39.5c21.82,0,39.5,17.68,39.5,39.5S962.45,219.7,940.64,219.7z M986.89,258.95
			c-12.78,0-23.17-10.4-23.17-23.17c0-4.88,3.95-8.83,8.83-8.83c4.88,0,8.83,3.95,8.83,8.83c0,3.04,2.47,5.52,5.52,5.52
			s5.52-2.47,5.52-5.52c0-4.88,3.95-8.83,8.83-8.83s8.83,3.95,8.83,8.83C1010.06,248.55,999.67,258.95,986.89,258.95z
			 M1033.14,219.7c-21.82,0-39.5-17.68-39.5-39.5s17.68-39.5,39.5-39.5c21.82,0,39.5,17.68,39.5,39.5S1054.95,219.7,1033.14,219.7z"
			/>
	</g>
	<g>
		<path d="M1022.53,169.59c-5.86,5.86-5.86,15.36,0,21.21c5.86,5.86,15.36,5.86,21.21,0c5.86-5.86,5.86-15.36,0-21.21
			S1028.39,163.73,1022.53,169.59z"/>
	</g>
	<g>
		<circle cx="940.64" cy="180.2" r="15"/>
	</g>
</g>
</svg>
