<?xml version="1.0" encoding="utf-8"?>
<!-- Generator: Adobe Illustrator 26.1.0, SVG Export Plug-In . SVG Version: 6.00 Build 0)  -->
<svg version="1.1" id="Layer_1" xmlns="http://www.w3.org/2000/svg" xmlns:xlink="http://www.w3.org/1999/xlink" x="0px" y="0px"
	 viewBox="0 0 65 65" style="enable-background:new 0 0 65 65;" xml:space="preserve">
<style type="text/css">
	.st0{opacity:0.68;}
	.st1{fill:#FF0000;}
	.st2{fill:#FFFFFF;}
</style>
<path class="st0" d="M192.3,214.6c0-3.3,28.5-10.3,12.7-26c-15.8-15.8-22.7,12.7-26,12.7s-10.3-28.5-26-12.7
	c-15.8,15.8,12.7,22.7,12.7,26s-28.5,10.3-12.7,26s22.7-12.7,26-12.7s10.3,28.5,26,12.7C220.8,224.9,192.3,218,192.3,214.6z"/>
<g>
	<g>
		<path class="st1" d="M-14.7,40.2c8.3-4.7,8.3-16.7,0-21.4l0,0l0,0c2.5-9.2-5.9-17.7-15.1-15.1l0,0l-0.8-1.5
			c-4.3-7.7-15.4-7.7-19.7,0l-0.8,1.5l0,0c-9.3-2.5-17.7,5.9-15.2,15.1l0,0l0,0c-8.3,4.7-8.3,16.7,0,21.4l0,0l0,0
			c-2.5,9.2,5.9,17.7,15.1,15.1l0,0l0,0c4.7,8.3,16.7,8.3,21.4,0l0,0l0,0C-20.6,57.8-12.2,49.4-14.7,40.2L-14.7,40.2L-14.7,40.2z
			 M-49.9,33c-4.4,0-8-3.6-8-8s3.6-8,8-8s8,3.6,8,8S-45.5,33-49.9,33z M-40.5,41c-2.6,0-4.7-2.1-4.7-4.7c0-1,0.8-1.8,1.8-1.8
			s1.8,0.8,1.8,1.8c0,0.6,0.5,1.1,1.1,1.1c0.6,0,1.1-0.5,1.1-1.1c0-1,0.8-1.8,1.8-1.8s1.8,0.8,1.8,1.8C-35.8,38.9-37.9,41-40.5,41z
			 M-31.1,33c-4.4,0-8-3.6-8-8s3.6-8,8-8s8,3.6,8,8S-26.7,33-31.1,33z"/>
	</g>
	<g>
		<circle class="st1" cx="-31.1" cy="25" r="3"/>
	</g>
	<g>
		<circle class="st1" cx="-49.9" cy="25" r="3"/>
	</g>
</g>
<path class="st1" d="M65,32.2c-0.3-7.6-5.1-9.5-7-9.5c-0.8,0-2.2,0.3-3.8,0.8c1.4-0.7,2.6-1.5,3.3-2.1c1.3-1.3,3.4-6.2-1.8-11.7
	c-0.1-0.1-0.1-0.1-0.2-0.2c-0.1-0.1-0.1-0.1-0.2-0.2C49.8,4.2,45,6.2,43.6,7.6c-0.6,0.6-1.4,1.8-2.2,3.2C42,9.3,42.3,7.9,42.3,7
	c0-1.9-2-6.8-9.5-7c-0.1,0-0.2,0-0.3,0c-0.1,0-0.2,0-0.3,0c-7.6,0.3-9.5,5.1-9.5,7c0,0.9,0.3,2.3,0.8,3.9c-0.8-1.5-1.5-2.7-2.2-3.4
	c-1.3-1.3-6.2-3.4-11.7,1.8C9.6,9.4,9.6,9.4,9.5,9.5C9.5,9.5,9.4,9.6,9.3,9.7C4.2,15.2,6.2,20,7.6,21.3c0.7,0.7,2,1.5,3.6,2.3
	C9.5,23.1,8,22.7,7,22.7c-1.9,0-6.8,2-7,9.5c0,0.1,0,0.2,0,0.3c0,0.1,0,0.2,0,0.3c0.3,7.6,5.1,9.5,7,9.5c0.9,0,2.4-0.3,4-0.8
	c-1.5,0.8-2.8,1.6-3.4,2.2C6.2,45,4.2,49.8,9.3,55.3c0.1,0.1,0.1,0.1,0.2,0.2c0.1,0.1,0.1,0.1,0.2,0.2c5.5,5.2,10.4,3.1,11.7,1.8
	c0.7-0.7,1.4-1.9,2.2-3.4c-0.5,1.6-0.9,3.1-0.9,4c0,1.9,2,6.8,9.5,7c0.1,0,0.2,0,0.3,0c0.1,0,0.2,0,0.3,0c7.6-0.3,9.5-5.1,9.5-7
	c0-0.8-0.3-2.3-0.8-3.9c0.8,1.4,1.5,2.7,2.1,3.3c1.3,1.3,6.2,3.4,11.7-1.8c0.1-0.1,0.1-0.1,0.2-0.2c0.1-0.1,0.1-0.1,0.2-0.2
	c5.2-5.5,3.1-10.4,1.8-11.7c-0.6-0.6-1.7-1.3-3.1-2.1c1.5,0.5,2.8,0.8,3.7,0.8c1.9,0,6.8-2,7-9.5c0-0.1,0-0.2,0-0.3
	C65,32.4,65,32.3,65,32.2z M29.7,31.5c0,0.7-0.6,1.3-1.3,1.3c-0.7,0-1.3-0.6-1.3-1.3c0-0.3,0.1-0.6,0.3-0.9
	c-0.2-0.2-0.3-0.5-0.3-0.9c0-0.7,0.6-1.3,1.3-1.3c0.7,0,1.3,0.6,1.3,1.3c0,0.3-0.1,0.6-0.3,0.9C29.5,30.8,29.7,31.1,29.7,31.5z
	 M32.5,36.6c-1.2,0-2.1-0.9-2.1-2.1c0-0.4,0.4-0.8,0.8-0.8c0.4,0,0.8,0.4,0.8,0.8c0,0.3,0.2,0.5,0.5,0.5c0.3,0,0.5-0.2,0.5-0.5
	c0-0.4,0.4-0.8,0.8-0.8s0.8,0.4,0.8,0.8C34.6,35.7,33.7,36.6,32.5,36.6z M38.1,31.5c0,0.7-0.6,1.3-1.3,1.3c-0.7,0-1.3-0.6-1.3-1.3
	c0-0.3,0.1-0.6,0.3-0.9c-0.2-0.2-0.3-0.5-0.3-0.9c0-0.7,0.6-1.3,1.3-1.3c0.7,0,1.3,0.6,1.3,1.3c0,0.3-0.1,0.6-0.3,0.9
	C37.9,30.8,38.1,31.1,38.1,31.5z"/>
<g>
	<g>
		<path class="st2" d="M179,218.7c-1.2,0-2.1-0.9-2.1-2.1c0-0.4,0.4-0.8,0.8-0.8c0.4,0,0.8,0.4,0.8,0.8c0,0.3,0.2,0.5,0.5,0.5
			s0.5-0.2,0.5-0.5c0-0.4,0.4-0.8,0.8-0.8c0.4,0,0.8,0.4,0.8,0.8C181.1,217.8,180.2,218.7,179,218.7z"/>
	</g>
	<path class="st2" d="M184.5,211.9c0-0.7-0.6-1.3-1.3-1.3c-0.7,0-1.3,0.6-1.3,1.3c0,0.3,0.1,0.6,0.3,0.9c-0.2,0.2-0.3,0.5-0.3,0.9
		c0,0.7,0.6,1.3,1.3,1.3c0.7,0,1.3-0.6,1.3-1.3c0-0.3-0.1-0.6-0.3-0.9C184.4,212.5,184.5,212.2,184.5,211.9z"/>
	<path class="st2" d="M176.1,211.9c0-0.7-0.6-1.3-1.3-1.3c-0.7,0-1.3,0.6-1.3,1.3c0,0.3,0.1,0.6,0.3,0.9c-0.2,0.2-0.3,0.5-0.3,0.9
		c0,0.7,0.6,1.3,1.3,1.3c0.7,0,1.3-0.6,1.3-1.3c0-0.3-0.1-0.6-0.3-0.9C176,212.5,176.1,212.2,176.1,211.9z"/>
</g>
<path d="M111.6,70.5c-17.7,0-32,14.3-32,32c0,17.7,14.3,32,32,32s32-14.3,32-32C143.6,84.8,129.3,70.5,111.6,70.5z M108.8,101.5
	c0,0.7-0.6,1.3-1.3,1.3c-0.7,0-1.3-0.6-1.3-1.3c0-0.3,0.1-0.6,0.3-0.9c-0.2-0.2-0.3-0.5-0.3-0.9c0-0.7,0.6-1.3,1.3-1.3
	c0.7,0,1.3,0.6,1.3,1.3c0,0.3-0.1,0.6-0.3,0.9C108.7,100.9,108.8,101.1,108.8,101.5z M111.6,106.6c-1.2,0-2.1-0.9-2.1-2.1
	c0-0.4,0.4-0.8,0.8-0.8s0.8,0.4,0.8,0.8c0,0.3,0.2,0.5,0.5,0.5s0.5-0.2,0.5-0.5c0-0.4,0.4-0.8,0.8-0.8s0.8,0.4,0.8,0.8
	C113.7,105.7,112.8,106.6,111.6,106.6z M117.2,101.5c0,0.7-0.6,1.3-1.3,1.3c-0.7,0-1.3-0.6-1.3-1.3c0-0.3,0.1-0.6,0.3-0.9
	c-0.2-0.2-0.3-0.5-0.3-0.9c0-0.7,0.6-1.3,1.3-1.3c0.7,0,1.3,0.6,1.3,1.3c0,0.3-0.1,0.6-0.3,0.9C117,100.9,117.2,101.1,117.2,101.5z"
	/>
<path class="st0" d="M198.4,13.9c-1.6,0.3-3,1.1-4.2,2c0.9-1.2,1.7-2.6,1.9-4.1c1.2-6.6-3.2-15.2-14.3-15.2s-15.5,8.6-14.3,15.2
	c0.3,1.5,1.1,2.9,1.9,4.1c-1.2-0.9-2.7-1.8-4.2-2c-6.6-1.2-15.2,3.2-15.2,14.3s8.6,15.5,15.2,14.3c1.5-0.3,2.8-1,4-1.8
	c-0.8,1.1-1.4,2.4-1.7,3.7c-1.2,6.6,3.2,15.2,14.3,15.2s15.5-8.6,14.3-15.2c-0.2-1.4-0.9-2.6-1.7-3.7c1.1,0.8,2.5,1.6,4,1.8
	c6.6,1.2,15.2-3.2,15.2-14.3S205,12.7,198.4,13.9z M178.9,27.1c0,0.7-0.6,1.3-1.3,1.3c-0.7,0-1.3-0.6-1.3-1.3c0-0.3,0.1-0.6,0.3-0.9
	c-0.2-0.2-0.3-0.5-0.3-0.9c0-0.7,0.6-1.3,1.3-1.3c0.7,0,1.3,0.6,1.3,1.3c0,0.3-0.1,0.6-0.3,0.9C178.8,26.5,178.9,26.8,178.9,27.1z
	 M181.8,32.2c-1.2,0-2.1-0.9-2.1-2.1c0-0.4,0.4-0.8,0.8-0.8c0.4,0,0.8,0.4,0.8,0.8c0,0.3,0.2,0.5,0.5,0.5c0.3,0,0.5-0.2,0.5-0.5
	c0-0.4,0.4-0.8,0.8-0.8c0.4,0,0.8,0.4,0.8,0.8C183.9,31.3,182.9,32.2,181.8,32.2z M187.3,27.1c0,0.7-0.6,1.3-1.3,1.3
	c-0.7,0-1.3-0.6-1.3-1.3c0-0.3,0.1-0.6,0.3-0.9c-0.2-0.2-0.3-0.5-0.3-0.9c0-0.7,0.6-1.3,1.3-1.3c0.7,0,1.3,0.6,1.3,1.3
	c0,0.3-0.1,0.6-0.3,0.9C187.2,26.5,187.3,26.8,187.3,27.1z"/>
<path d="M285.6,25.1c4.6-15.6-9.9-30-25.4-25.4c-3.8,1.1-7.8,1.1-11.6,0c-15.5-4.6-30,9.8-25.4,25.4c1.1,3.8,1.1,7.8,0,11.5
	c-4.6,15.6,9.9,30,25.4,25.4c3.8-1.1,7.8-1.1,11.5,0c15.6,4.6,30-9.8,25.5-25.4C284.5,32.8,284.5,28.8,285.6,25.1z M251.6,29.8
	c0,0.7-0.6,1.3-1.3,1.3c-0.7,0-1.3-0.6-1.3-1.3c0-0.3,0.1-0.6,0.3-0.9c-0.2-0.2-0.3-0.5-0.3-0.9c0-0.7,0.6-1.3,1.3-1.3
	c0.7,0,1.3,0.6,1.3,1.3c0,0.3-0.1,0.6-0.3,0.9C251.4,29.2,251.6,29.5,251.6,29.8z M254.4,35c-1.2,0-2.1-0.9-2.1-2.1
	c0-0.4,0.4-0.8,0.8-0.8c0.4,0,0.8,0.4,0.8,0.8c0,0.3,0.2,0.5,0.5,0.5c0.3,0,0.5-0.2,0.5-0.5c0-0.4,0.4-0.8,0.8-0.8
	c0.4,0,0.8,0.4,0.8,0.8C256.5,34,255.6,35,254.4,35z M260,29.8c0,0.7-0.6,1.3-1.3,1.3c-0.7,0-1.3-0.6-1.3-1.3c0-0.3,0.1-0.6,0.3-0.9
	c-0.2-0.2-0.3-0.5-0.3-0.9c0-0.7,0.6-1.3,1.3-1.3c0.7,0,1.3,0.6,1.3,1.3c0,0.3-0.1,0.6-0.3,0.9C259.8,29.2,260,29.5,260,29.8z"/>
<path class="st0" d="M363.4,32.9l-21-4.6L353.6,10l-18.1,11.6l-5-20.9l-4.6,21l-18.3-11.3l11.6,18.1l-20.9,5l21,4.6l-11.3,18.3
	l18.1-11.6l5,20.9l4.6-21L354.1,56L342.5,38L363.4,32.9z M328,33.2c0,0.7-0.6,1.3-1.3,1.3c-0.7,0-1.3-0.6-1.3-1.3
	c0-0.3,0.1-0.6,0.3-0.9c-0.2-0.2-0.3-0.5-0.3-0.9c0-0.7,0.6-1.3,1.3-1.3c0.7,0,1.3,0.6,1.3,1.3c0,0.3-0.1,0.6-0.3,0.9
	C327.9,32.6,328,32.9,328,33.2z M330.9,38.4c-1.2,0-2.1-0.9-2.1-2.1c0-0.4,0.4-0.8,0.8-0.8c0.4,0,0.8,0.4,0.8,0.8
	c0,0.3,0.2,0.5,0.5,0.5c0.3,0,0.5-0.2,0.5-0.5c0-0.4,0.4-0.8,0.8-0.8s0.8,0.4,0.8,0.8C333,37.4,332,38.4,330.9,38.4z M336.4,33.2
	c0,0.7-0.6,1.3-1.3,1.3c-0.7,0-1.3-0.6-1.3-1.3c0-0.3,0.1-0.6,0.3-0.9c-0.2-0.2-0.3-0.5-0.3-0.9c0-0.7,0.6-1.3,1.3-1.3
	c0.7,0,1.3,0.6,1.3,1.3c0,0.3-0.1,0.6-0.3,0.9C336.3,32.6,336.4,32.9,336.4,33.2z"/>
<path class="st0" d="M277,97.7l-8.8-23.5l-8.8,23.5l-23.5,8.8l23.5,8.8l8.8,23.5l8.8-23.5l23.5-8.8L277,97.7z M265.4,106.4
	c0,0.7-0.6,1.3-1.3,1.3c-0.7,0-1.3-0.6-1.3-1.3c0-0.3,0.1-0.6,0.3-0.9c-0.2-0.2-0.3-0.5-0.3-0.9c0-0.7,0.6-1.3,1.3-1.3
	c0.7,0,1.3,0.6,1.3,1.3c0,0.3-0.1,0.6-0.3,0.9C265.2,105.8,265.4,106.1,265.4,106.4z M268.2,111.6c-1.2,0-2.1-0.9-2.1-2.1
	c0-0.4,0.4-0.8,0.8-0.8s0.8,0.4,0.8,0.8c0,0.3,0.2,0.5,0.5,0.5c0.3,0,0.5-0.2,0.5-0.5c0-0.4,0.4-0.8,0.8-0.8c0.4,0,0.8,0.4,0.8,0.8
	C270.3,110.7,269.4,111.6,268.2,111.6z M273.7,106.4c0,0.7-0.6,1.3-1.3,1.3c-0.7,0-1.3-0.6-1.3-1.3c0-0.3,0.1-0.6,0.3-0.9
	c-0.2-0.2-0.3-0.5-0.3-0.9c0-0.7,0.6-1.3,1.3-1.3c0.7,0,1.3,0.6,1.3,1.3c0,0.3-0.1,0.6-0.3,0.9C273.6,105.8,273.7,106.1,273.7,106.4
	z"/>
<path class="st0" d="M204.8,111.7c0,0,4.5,0.6,4.5,0.6c8.2,1.8,14.8-5.3,12.7-13.1l0,0c-0.1-0.3-0.3-0.8-0.5-1.4l-0.1,0
	c-0.1-0.3-0.2-0.6-0.3-0.7l0,0c-2-4.1-6-6.8-11.1-6.3c-4.4,0.8-6.9,4.5-9.8,7.1c-0.8,1.1-2.6,0.2-2.2-1.1c1.5-3.8,4.1-7.7,3.2-12.2
	c-1.8-5.7-6.9-8.5-12.3-7.8l0,0c-4.5,0.7-8.3,3.6-9.4,8.7c-0.7,4.5,3.8,11.4,3.8,11.4l0,0c0.7,1.1-0.8,2.5-1.8,1.6
	c0,0-6.1-6.3-10.3-6.7c-5.2-0.1-8.9,2.9-10.7,7.1l0,0c-0.1,0.2-0.5,2-0.6,2.2l0,0c-0.8,4.5,0.8,9,5.3,11.7c3.8,1.9,8,0.5,11.8-0.1
	l0,0c0.7-0.2,1.4,0.3,1.6,1c0.1,0.5-0.1,1-0.5,1.3l-4.4,2.4c-14.3,7.9,0.6,27.3,12.8,17.5c2.1-2,2.8-4.9,3.2-7.4l0.7-4.1
	c0-0.7,0.9-1.3,1.5-1.1c0.4,0.1,0.8,0.4,0.9,0.8l1.2,5.2c1,7.6,10.3,10.8,16.1,6.7l0,0c0.2-0.1,1.6-1.3,1.8-1.4l0,0
	c3.3-3.2,4.6-7.8,2.6-12.5c-2.2-4-6.4-5.3-10.1-6.8l0,0C203.1,113.7,203.4,111.7,204.8,111.7z M188.2,108c0,0.7-0.6,1.3-1.3,1.3
	c-0.7,0-1.3-0.6-1.3-1.3c0-0.3,0.1-0.6,0.3-0.9c-0.2-0.2-0.3-0.5-0.3-0.9c0-0.7,0.6-1.3,1.3-1.3c0.7,0,1.3,0.6,1.3,1.3
	c0,0.3-0.1,0.6-0.3,0.9C188,107.4,188.2,107.7,188.2,108z M191,113.2c-1.2,0-2.1-0.9-2.1-2.1c0-0.4,0.4-0.8,0.8-0.8s0.8,0.4,0.8,0.8
	c0,0.3,0.2,0.5,0.5,0.5s0.5-0.2,0.5-0.5c0-0.4,0.4-0.8,0.8-0.8s0.8,0.4,0.8,0.8C193.1,112.2,192.2,113.2,191,113.2z M196.5,108
	c0,0.7-0.6,1.3-1.3,1.3c-0.7,0-1.3-0.6-1.3-1.3c0-0.3,0.1-0.6,0.3-0.9c-0.2-0.2-0.3-0.5-0.3-0.9c0-0.7,0.6-1.3,1.3-1.3
	c0.7,0,1.3,0.6,1.3,1.3c0,0.3-0.1,0.6-0.3,0.9C196.4,107.4,196.5,107.7,196.5,108z"/>
</svg>
