<?xml version="1.0" encoding="utf-8"?>
<!-- Generator: Adobe Illustrator 26.1.0, SVG Export Plug-In . SVG Version: 6.00 Build 0)  -->
<svg version="1.1" id="Layer_1" xmlns="http://www.w3.org/2000/svg" xmlns:xlink="http://www.w3.org/1999/xlink" x="0px" y="0px"
	 viewBox="0 0 64 64" style="enable-background:new 0 0 64 64;" xml:space="preserve">
<style type="text/css">
	.st0{fill:#0000FF;}
</style>
<g>
	<g>
		<path class="st0" d="M32,0C14.3,0,0,14.3,0,32s14.3,32,32,32s32-14.3,32-32S49.7,0,32,0z M14.9,28.1c0-4.4,3.5-7.9,7.9-7.9
			s7.9,3.5,7.9,7.9S27.1,36,22.8,36S14.9,32.4,14.9,28.1z M32,43.8c-2.6,0-4.6-2.1-4.6-4.6c0-1,0.8-1.8,1.8-1.8s1.8,0.8,1.8,1.8
			c0,0.6,0.5,1.1,1.1,1.1s1.1-0.5,1.1-1.1c0-1,0.8-1.8,1.8-1.8c1,0,1.8,0.8,1.8,1.8C36.6,41.7,34.6,43.8,32,43.8z M41.3,36
			c-4.4,0-7.9-3.5-7.9-7.9s3.5-7.9,7.9-7.9s7.9,3.5,7.9,7.9S45.6,36,41.3,36z"/>
	</g>
	<g>
		<circle class="st0" cx="41.3" cy="28.1" r="3"/>
	</g>
	<g>
		<circle class="st0" cx="22.7" cy="28.1" r="3"/>
	</g>
</g>
</svg>
