<?xml version="1.0" encoding="utf-8"?>
<!-- Generator: Adobe Illustrator 26.1.0, SVG Export Plug-In . SVG Version: 6.00 Build 0)  -->
<svg version="1.1" id="Layer_1" xmlns="http://www.w3.org/2000/svg" xmlns:xlink="http://www.w3.org/1999/xlink" x="0px" y="0px"
	 viewBox="0 0 64 64" style="enable-background:new 0 0 64 64;" xml:space="preserve">
<style type="text/css">
	.st0{fill:#FF0000;}
</style>
<g>
	<g>
		<path class="st0" d="M-106.3-6.9c-17.7,0-32,14.3-32,32s14.3,32,32,32s32-14.3,32-32S-88.6-6.9-106.3-6.9z M-123.4,21.2
			c0-4.4,3.5-7.9,7.9-7.9s7.9,3.5,7.9,7.9s-3.6,7.9-7.9,7.9S-123.4,25.5-123.4,21.2z M-106.3,36.9c-2.6,0-4.6-2.1-4.6-4.6
			c0-1,0.8-1.8,1.8-1.8s1.8,0.8,1.8,1.8c0,0.6,0.5,1.1,1.1,1.1c0.6,0,1.1-0.5,1.1-1.1c0-1,0.8-1.8,1.8-1.8s1.8,0.8,1.8,1.8
			C-101.7,34.8-103.7,36.9-106.3,36.9z M-97,29.1c-4.4,0-7.9-3.5-7.9-7.9s3.5-7.9,7.9-7.9s7.9,3.5,7.9,7.9S-92.7,29.1-97,29.1z"/>
	</g>
	<g>
		<circle class="st0" cx="-97" cy="21.2" r="3"/>
	</g>
	<g>
		<circle class="st0" cx="-115.6" cy="21.2" r="3"/>
	</g>
</g>
<path class="st0" d="M32,0C14.3,0,0,14.3,0,32c0,17.7,14.3,32,32,32s32-14.3,32-32C64,14.3,49.7,0,32,0z M29.1,31
	c0,0.7-0.6,1.3-1.3,1.3c-0.7,0-1.3-0.6-1.3-1.3c0-0.3,0.1-0.6,0.3-0.9c-0.2-0.2-0.3-0.5-0.3-0.9c0-0.7,0.6-1.3,1.3-1.3
	c0.7,0,1.3,0.6,1.3,1.3c0,0.3-0.1,0.6-0.3,0.9C29,30.3,29.1,30.6,29.1,31z M32,36.1c-1.2,0-2.1-0.9-2.1-2.1c0-0.4,0.4-0.8,0.8-0.8
	s0.8,0.4,0.8,0.8c0,0.3,0.2,0.5,0.5,0.5s0.5-0.2,0.5-0.5c0-0.4,0.4-0.8,0.8-0.8s0.8,0.4,0.8,0.8C34.1,35.2,33.2,36.1,32,36.1z
	 M37.5,31c0,0.7-0.6,1.3-1.3,1.3c-0.7,0-1.3-0.6-1.3-1.3c0-0.3,0.1-0.6,0.3-0.9c-0.2-0.2-0.3-0.5-0.3-0.9c0-0.7,0.6-1.3,1.3-1.3
	c0.7,0,1.3,0.6,1.3,1.3c0,0.3-0.1,0.6-0.3,0.9C37.4,30.3,37.5,30.6,37.5,31z"/>
</svg>
