<?xml version="1.0" encoding="utf-8"?>
<!-- Generator: Adobe Illustrator 26.1.0, SVG Export Plug-In . SVG Version: 6.00 Build 0)  -->
<svg version="1.1" id="Layer_1" xmlns="http://www.w3.org/2000/svg" xmlns:xlink="http://www.w3.org/1999/xlink" x="0px" y="0px"
	 viewBox="0 0 355 345" style="enable-background:new 0 0 355 345;" xml:space="preserve">
<style type="text/css">
	.st0{fill:#FFFFFF;}
</style>
<g>
	<g>
		<path d="M308.01,224.31c40.87-23.13,40.87-82,0-105.13l0,0v0c12.54-45.25-29.09-86.88-74.34-74.34l0,0l-4.13-7.31
			c-21.31-37.65-75.55-37.65-96.86,0l-4.13,7.31l0,0c-45.25-12.54-86.88,29.09-74.34,74.34l0,0l0,0c-40.87,23.13-40.87,82,0,105.13
			l0,0l0,0c-12.54,45.25,29.09,86.88,74.34,74.34l0,0l0,0c23.13,40.87,82,40.87,105.13,0l0,0l0,0
			C278.93,311.19,320.55,269.57,308.01,224.31L308.01,224.31L308.01,224.31z M134.86,189.18c-21.82,0-39.5-17.68-39.5-39.5
			s17.68-39.5,39.5-39.5c21.82,0,39.5,17.68,39.5,39.5S156.68,189.18,134.86,189.18z M181.11,228.43
			c-12.78,0-23.17-10.4-23.17-23.17c0-4.88,3.95-8.83,8.83-8.83s8.83,3.95,8.83,8.83c0,3.04,2.47,5.52,5.52,5.52
			c3.04,0,5.52-2.48,5.52-5.52c0-4.88,3.95-8.83,8.83-8.83s8.83,3.95,8.83,8.83C204.28,218.03,193.89,228.43,181.11,228.43z
			 M227.36,189.18c-21.82,0-39.5-17.68-39.5-39.5s17.68-39.5,39.5-39.5c21.82,0,39.5,17.68,39.5,39.5S249.18,189.18,227.36,189.18z"
			/>
	</g>
	<g>
		<circle cx="227.36" cy="149.68" r="15"/>
	</g>
	<g>
		<circle cx="134.86" cy="149.68" r="15"/>
	</g>
</g>
<polygon points="633.02,-30.28 680.86,54.23 774.44,28.3 748.51,121.88 833.02,169.72 748.51,217.55 774.44,311.14 680.86,285.2 
	633.02,369.72 585.19,285.2 491.6,311.14 517.54,217.55 433.02,169.72 517.54,121.88 491.6,28.3 585.19,54.23 "/>
<path d="M1453.06,28.43L1453.06,28.43c8.62,15.23,26.49,22.63,43.35,17.96l0,0c28.56-7.91,54.83,18.36,46.91,46.91l0,0
	c-4.67,16.86,2.73,34.73,17.96,43.35l0,0c25.79,14.6,25.79,51.75,0,66.34l0,0c-15.22,8.62-22.63,26.49-17.96,43.35l0,0
	c7.91,28.56-18.36,54.83-46.91,46.91h0c-16.86-4.67-34.73,2.73-43.35,17.96v0c-14.6,25.79-51.75,25.79-66.34,0v0
	c-8.62-15.23-26.49-22.63-43.35-17.96h0c-28.56,7.91-54.83-18.36-46.91-46.91v0c4.67-16.86-2.73-34.73-17.96-43.35l0,0
	c-25.79-14.6-25.79-51.75,0-66.34l0,0c15.22-8.62,22.63-26.49,17.96-43.35v0c-7.91-28.56,18.36-54.83,46.91-46.91l0,0
	c16.86,4.67,34.73-2.73,43.35-17.96v0C1401.31,2.64,1438.46,2.64,1453.06,28.43z"/>
<g>
	<g>
		<g>
			<circle class="st0" cx="586.77" cy="150.09" r="39.5"/>
		</g>
		<g>
			<circle class="st0" cx="679.27" cy="150.09" r="39.5"/>
		</g>
		<g>
			<circle cx="679.27" cy="150.09" r="15"/>
		</g>
		<g>
			<circle cx="586.77" cy="150.09" r="15"/>
		</g>
	</g>
	<path class="st0" d="M633.02,228.84c-12.78,0-23.17-10.4-23.17-23.17c0-4.88,3.95-8.83,8.83-8.83c4.88,0,8.83,3.95,8.83,8.83
		c0,3.04,2.47,5.52,5.52,5.52s5.52-2.48,5.52-5.52c0-4.88,3.95-8.83,8.83-8.83s8.83,3.95,8.83,8.83
		C656.19,218.45,645.8,228.84,633.02,228.84z"/>
</g>
<circle cx="1032.76" cy="169.93" r="160"/>
<g>
	<g>
		<g>
			<circle class="st0" cx="986.51" cy="150.3" r="39.5"/>
		</g>
		<g>
			<circle class="st0" cx="1079.01" cy="150.3" r="39.5"/>
		</g>
		<g>
			<circle cx="1079.01" cy="150.3" r="15"/>
		</g>
		<g>
			<circle cx="986.51" cy="150.3" r="15"/>
		</g>
	</g>
	<path class="st0" d="M1032.76,229.05c-12.78,0-23.17-10.4-23.17-23.17c0-4.88,3.95-8.83,8.83-8.83s8.83,3.95,8.83,8.83
		c0,3.04,2.47,5.52,5.52,5.52s5.52-2.48,5.52-5.52c0-4.88,3.95-8.83,8.83-8.83c4.88,0,8.83,3.95,8.83,8.83
		C1055.93,218.66,1045.53,229.05,1032.76,229.05z"/>
</g>
<g>
	<g>
		<g>
			<circle class="st0" cx="1373.64" cy="150.2" r="39.5"/>
		</g>
		<g>
			<circle class="st0" cx="1466.14" cy="150.2" r="39.5"/>
		</g>
		<g>
			<circle cx="1466.14" cy="150.2" r="15"/>
		</g>
		<g>
			<circle cx="1373.64" cy="150.2" r="15"/>
		</g>
	</g>
	<path class="st0" d="M1419.89,228.95c-12.78,0-23.17-10.4-23.17-23.17c0-4.88,3.95-8.83,8.83-8.83c4.88,0,8.83,3.95,8.83,8.83
		c0,3.04,2.47,5.52,5.52,5.52s5.52-2.48,5.52-5.52c0-4.88,3.95-8.83,8.83-8.83c4.88,0,8.83,3.95,8.83,8.83
		C1443.06,218.55,1432.67,228.95,1419.89,228.95z"/>
</g>
</svg>
