<?xml version="1.0" encoding="utf-8"?>
<!-- Generator: Adobe Illustrator 26.1.0, SVG Export Plug-In . SVG Version: 6.00 Build 0)  -->
<svg version="1.1" id="Layer_1" xmlns="http://www.w3.org/2000/svg" xmlns:xlink="http://www.w3.org/1999/xlink" x="0px" y="0px"
	 viewBox="0 0 65.1 65.1" style="enable-background:new 0 0 65.1 65.1;" xml:space="preserve">
<style type="text/css">
	.st0{fill:#FFFFFF;}
</style>
<g>
	<g>
		<path class="st0" d="M-34.8,18.6L-48.3,11l4.1-15l-15,4.1l-7.6-13.5l-7.6,13.5l-15-4.1l4.1,15l-13.5,7.6l13.5,7.6l-4.1,15l15-4.1
			l7.6,13.5l7.6-13.5l15,4.1l-4.1-15L-34.8,18.6z M-80.5,15.5c0-3.5,2.8-6.3,6.3-6.3s6.3,2.8,6.3,6.3s-2.8,6.3-6.3,6.3
			S-80.5,19-80.5,15.5z M-66.8,28.1c-2,0-3.7-1.7-3.7-3.7c0-0.8,0.6-1.4,1.4-1.4c0.8,0,1.4,0.6,1.4,1.4c0,0.5,0.4,0.9,0.9,0.9
			c0.5,0,0.9-0.4,0.9-0.9c0-0.8,0.6-1.4,1.4-1.4c0.8,0,1.4,0.6,1.4,1.4C-63.1,26.4-64.8,28.1-66.8,28.1z M-59.4,21.8
			c-3.5,0-6.3-2.8-6.3-6.3s2.8-6.3,6.3-6.3s6.3,2.8,6.3,6.3S-55.9,21.8-59.4,21.8z"/>
	</g>
	<g>
		<ellipse class="st0" cx="-59.4" cy="15.5" rx="2.4" ry="2.4"/>
	</g>
	<g>
		<circle class="st0" cx="-74.2" cy="15.5" r="2.4"/>
	</g>
</g>
<path class="st0" d="M65.1,32.3l-21-4.6L55.3,9.3L37.2,21l-5-20.9l-4.6,21L9.3,9.8l11.6,18.1L0,32.9l21,4.6L9.8,55.8l18.1-11.6
	l5,20.9l4.6-21l18.3,11.3L44.2,37.3L65.1,32.3z M29.7,32.6c0,0.7-0.6,1.3-1.3,1.3c-0.7,0-1.3-0.6-1.3-1.3c0-0.3,0.1-0.6,0.3-0.9
	c-0.2-0.2-0.3-0.5-0.3-0.9c0-0.7,0.6-1.3,1.3-1.3c0.7,0,1.3,0.6,1.3,1.3c0,0.3-0.1,0.6-0.3,0.9C29.6,31.9,29.7,32.2,29.7,32.6z
	 M32.5,37.7c-1.2,0-2.1-0.9-2.1-2.1c0-0.4,0.4-0.8,0.8-0.8c0.4,0,0.8,0.4,0.8,0.8c0,0.3,0.2,0.5,0.5,0.5c0.3,0,0.5-0.2,0.5-0.5
	c0-0.4,0.4-0.8,0.8-0.8s0.8,0.4,0.8,0.8C34.6,36.8,33.7,37.7,32.5,37.7z M38.1,32.6c0,0.7-0.6,1.3-1.3,1.3c-0.7,0-1.3-0.6-1.3-1.3
	c0-0.3,0.1-0.6,0.3-0.9c-0.2-0.2-0.3-0.5-0.3-0.9c0-0.7,0.6-1.3,1.3-1.3c0.7,0,1.3,0.6,1.3,1.3c0,0.3-0.1,0.6-0.3,0.9
	C37.9,31.9,38.1,32.2,38.1,32.6z"/>
</svg>
