<?xml version="1.0" encoding="utf-8"?>
<!-- Generator: Adobe Illustrator 26.1.0, SVG Export Plug-In . SVG Version: 6.00 Build 0)  -->
<svg version="1.1" id="Layer_1" xmlns="http://www.w3.org/2000/svg" xmlns:xlink="http://www.w3.org/1999/xlink" x="0px" y="0px"
	 viewBox="0 0 64.6 64.6" style="enable-background:new 0 0 64.6 64.6;" xml:space="preserve">
<style type="text/css">
	.st0{fill:#FF0000;}
</style>
<g>
	<circle class="st0" cx="-41.1" cy="29.9" r="2.4"/>
	<circle class="st0" cx="-56.1" cy="29.9" r="2.4"/>
	<path class="st0" d="M-27.8,38.4l10.8-6.1l-10.8-6.1l3.9-9.1c2.7-6.3-3.6-12.7-9.9-9.9l-9.1,3.9L-49,0.3l-6.1,10.8l-9.1-3.9
		c-6.3-2.7-12.7,3.6-9.9,9.9l3.9,9.1L-81,32.3l10.8,6.1l-3.9,9.1c-2.7,6.3,3.6,12.7,9.9,9.9l9.1-3.9l6.1,10.8l6.1-10.8l9.1,3.9
		c6.3,2.7,12.7-3.6,9.9-9.9L-27.8,38.4z M-50.8,37.4c0.8,0,1.4,0.6,1.4,1.4c0,0.5,0.4,0.9,0.9,0.9s0.9-0.4,0.9-0.9
		c0-0.8,0.6-1.4,1.4-1.4s1.4,0.6,1.4,1.4c-0.2,2-1.8,3.7-3.9,3.7c-2.1,0-3.7-1.7-3.7-3.7C-52.3,38-51.6,37.4-50.8,37.4z M-56,36.2
		c-3.5,0-6.4-2.9-6.4-6.4s2.8-6.4,6.4-6.4c3.5,0,6.4,2.8,6.4,6.4C-49.6,33.4-52.5,36.2-56,36.2z M-47.5,29.9c0-3.5,2.8-6.4,6.4-6.4
		c3.5,0,6.4,2.8,6.4,6.4c0,3.5-2.9,6.4-6.4,6.4C-44.6,36.2-47.5,33.4-47.5,29.9z"/>
</g>
<path class="st0" d="M41.1,23.5L32.3,0l-8.8,23.5L0,32.3l23.5,8.8l8.8,23.5l8.8-23.5l23.5-8.8L41.1,23.5z M29.5,32.3
	c0,0.7-0.6,1.3-1.3,1.3c-0.7,0-1.3-0.6-1.3-1.3c0-0.3,0.1-0.6,0.3-0.9c-0.2-0.2-0.3-0.5-0.3-0.9c0-0.7,0.6-1.3,1.3-1.3
	c0.7,0,1.3,0.6,1.3,1.3c0,0.3-0.1,0.6-0.3,0.9C29.3,31.6,29.5,31.9,29.5,32.3z M32.3,37.4c-1.2,0-2.1-0.9-2.1-2.1
	c0-0.4,0.4-0.8,0.8-0.8s0.8,0.4,0.8,0.8c0,0.3,0.2,0.5,0.5,0.5c0.3,0,0.5-0.2,0.5-0.5c0-0.4,0.4-0.8,0.8-0.8c0.4,0,0.8,0.4,0.8,0.8
	C34.4,36.5,33.5,37.4,32.3,37.4z M37.8,32.3c0,0.7-0.6,1.3-1.3,1.3c-0.7,0-1.3-0.6-1.3-1.3c0-0.3,0.1-0.6,0.3-0.9
	c-0.2-0.2-0.3-0.5-0.3-0.9c0-0.7,0.6-1.3,1.3-1.3c0.7,0,1.3,0.6,1.3,1.3c0,0.3-0.1,0.6-0.3,0.9C37.7,31.6,37.8,31.9,37.8,32.3z"/>
</svg>
