<?xml version="1.0" encoding="utf-8"?>
<!-- Generator: Adobe Illustrator 26.1.0, SVG Export Plug-In . SVG Version: 6.00 Build 0)  -->
<svg version="1.1" id="Layer_1" xmlns="http://www.w3.org/2000/svg" xmlns:xlink="http://www.w3.org/1999/xlink" x="0px" y="0px"
	 viewBox="0 0 64 64" style="enable-background:new 0 0 64 64;" xml:space="preserve">
<style type="text/css">
	.st0{fill:#FF0000;}
</style>
<g>
	<circle class="st0" cx="-39.6" cy="28.4" r="2.9"/>
	<circle class="st0" cx="-57.8" cy="28.4" r="2.9"/>
	<path class="st0" d="M-18,37.8c-1.1-3.8-1.1-7.8,0-11.5l0,0c4.6-15.6-9.9-30-25.4-25.4C-47.2,2-51.2,2-55,0.9l0,0
		c-15.5-4.6-30,9.8-25.4,25.4c1.1,3.8,1.1,7.8,0,11.5l0,0c-4.6,15.6,9.9,30,25.4,25.4l0,0c3.8-1.1,7.8-1.1,11.5,0
		C-27.9,67.8-13.5,53.4-18,37.8L-18,37.8z M-50,28.4c0,4.3-3.5,7.7-7.7,7.7s-7.7-3.5-7.7-7.7c0-4.3,3.4-7.7,7.7-7.7
		C-53.4,20.7-50,24.2-50,28.4z M-53.2,39.3c0-1,0.8-1.8,1.8-1.8s1.8,0.8,1.8,1.8c0,0.6,0.5,1.1,1.1,1.1s1.1-0.5,1.1-1.1
		c0-1,0.8-1.8,1.8-1.8s1.8,0.8,1.8,1.8c-0.2,2.4-2.1,4.5-4.7,4.5C-51.2,43.7-53.2,41.7-53.2,39.3z M-39.6,36.1
		c-4.3,0-7.7-3.4-7.7-7.7s3.4-7.7,7.7-7.7s7.7,3.4,7.7,7.7S-35.5,36.1-39.6,36.1z"/>
</g>
<path class="st0" d="M63.2,26.2c4.6-15.6-9.9-30-25.4-25.4C34,1.9,30,1.9,26.2,0.9c-15.5-4.6-30,9.8-25.4,25.4
	c1.1,3.8,1.1,7.8,0,11.5c-4.6,15.6,9.9,30,25.4,25.4C30,62,34,62,37.7,63.2c15.6,4.6,30-9.8,25.5-25.4
	C62.1,33.9,62.1,29.9,63.2,26.2z M29.1,31c0,0.7-0.6,1.3-1.3,1.3c-0.7,0-1.3-0.6-1.3-1.3c0-0.3,0.1-0.6,0.3-0.9
	c-0.2-0.2-0.3-0.5-0.3-0.9c0-0.7,0.6-1.3,1.3-1.3c0.7,0,1.3,0.6,1.3,1.3c0,0.3-0.1,0.6-0.3,0.9C29,30.3,29.1,30.6,29.1,31z M32,36.1
	c-1.2,0-2.1-0.9-2.1-2.1c0-0.4,0.4-0.8,0.8-0.8c0.4,0,0.8,0.4,0.8,0.8c0,0.3,0.2,0.5,0.5,0.5c0.3,0,0.5-0.2,0.5-0.5
	c0-0.4,0.4-0.8,0.8-0.8c0.4,0,0.8,0.4,0.8,0.8C34.1,35.2,33.2,36.1,32,36.1z M37.5,31c0,0.7-0.6,1.3-1.3,1.3c-0.7,0-1.3-0.6-1.3-1.3
	c0-0.3,0.1-0.6,0.3-0.9c-0.2-0.2-0.3-0.5-0.3-0.9c0-0.7,0.6-1.3,1.3-1.3c0.7,0,1.3,0.6,1.3,1.3c0,0.3-0.1,0.6-0.3,0.9
	C37.4,30.3,37.5,30.6,37.5,31z"/>
</svg>
