<?xml version="1.0" encoding="utf-8"?>
<!-- Generator: Adobe Illustrator 26.1.0, SVG Export Plug-In . SVG Version: 6.00 Build 0)  -->
<svg version="1.1" id="Layer_1" xmlns="http://www.w3.org/2000/svg" xmlns:xlink="http://www.w3.org/1999/xlink" x="0px" y="0px"
	 viewBox="0 0 64 62.7" style="enable-background:new 0 0 64 62.7;" xml:space="preserve">
<style type="text/css">
	.st0{fill:#FF0000;}
</style>
<g>
	<g>
		<path class="st0" d="M32.9-77.1L32.9-77.1c-3-1.7-4.5-5.3-3.6-8.6l0,0c1.6-5.7-3.7-10.9-9.3-9.3l0,0c-3.4,0.9-6.9-0.5-8.6-3.6l0,0
			c-2.9-5.1-10.3-5.1-13.2,0l0,0c-1.7,3-5.3,4.5-8.6,3.6l0,0c-5.7-1.6-10.9,3.6-9.4,9.3l0,0c0.9,3.4-0.5,6.9-3.6,8.6l0,0
			c-5.1,2.9-5.1,10.3,0,13.2l0,0c3,1.7,4.5,5.3,3.6,8.6l0,0c-1.6,5.7,3.7,10.9,9.3,9.3l0,0c3.4-0.9,6.9,0.5,8.6,3.6l0,0
			c2.9,5.1,10.3,5.1,13.2,0l0,0c1.7-3,5.3-4.5,8.6-3.6l0,0c5.7,1.6,10.9-3.7,9.3-9.3l0,0c-0.9-3.4,0.5-6.9,3.6-8.6l0,0
			C38.1-66.8,38.1-74.2,32.9-77.1z M-4.4-66.6c-4.3,0-7.9-3.5-7.9-7.9s3.5-7.9,7.9-7.9s7.9,3.5,7.9,7.9S-0.1-66.6-4.4-66.6z
			 M4.8-58.8c-2.5,0-4.6-2.1-4.6-4.6c0-1,0.8-1.8,1.8-1.8s1.8,0.8,1.8,1.8c0,0.6,0.5,1.1,1.1,1.1S6-62.8,6-63.4c0-1,0.8-1.8,1.8-1.8
			s1.8,0.8,1.8,1.8C9.4-60.8,7.3-58.8,4.8-58.8z M14-66.6c-4.3,0-7.9-3.5-7.9-7.9s3.5-7.9,7.9-7.9s7.9,3.5,7.9,7.9
			S18.3-66.6,14-66.6z"/>
	</g>
	<g>
		<path class="st0" d="M11.9-76.5c-1.2,1.2-1.2,3.1,0,4.2c1.2,1.2,3.1,1.2,4.2,0c1.2-1.2,1.2-3.1,0-4.2
			C14.9-77.7,13.1-77.7,11.9-76.5z"/>
	</g>
	<g>
		<circle class="st0" cx="-4.4" cy="-74.4" r="3"/>
	</g>
</g>
<g>
	<circle class="st0" cx="-59.9" cy="-28.7" r="2.9"/>
	<circle class="st0" cx="-78" cy="-28.7" r="2.9"/>
	<path class="st0" d="M-48.5-44.6c-4.7,0.1-9-2.7-10.7-7.1l0,0c-4-9.9-18.2-9.3-21.2,1l0,0c-1.3,4.5-5.4,7.7-10.1,8l0,0
		c-10.6,0.7-14.4,14.4-5.6,20.5l0,0c3.9,2.7,5.7,7.5,4.5,12C-94.3,0.1-82.4,8-73.9,1.5l0,0c3.7-2.9,8.9-3.1,12.8-0.6l0,0
		c9,5.7,20.2-3.2,16.6-13.3l0,0c-1.6-4.4-0.2-9.4,3.4-12.4l0,0C-32.8-31.5-37.8-44.9-48.5-44.6z M-52.3-28.7c0,4.3-3.5,7.7-7.7,7.7
		c-4.3,0-7.7-3.4-7.7-7.7s3.4-7.7,7.7-7.7C-55.7-36.3-52.3-32.9-52.3-28.7z M-67.8-17.9c0-1,0.8-1.7,1.7-1.7c1,0,1.7,0.8,1.7,1.7
		c-0.2,2.4-2.1,4.5-4.7,4.5c-2.5,0-4.5-2-4.5-4.5c0-1,0.8-1.7,1.7-1.7c0.9,0,2,0.8,2,1.7c0,0.6,0.5,1.1,1.1,1.1
		C-68.3-16.8-67.8-17.3-67.8-17.9z M-70.2-28.7c0,4.3-3.5,7.7-7.7,7.7c-3.9,0-7.2-3-7.6-6.8v-1.7c0.4-3.9,3.6-6.8,7.6-6.8
		C-73.6-36.3-70.2-32.9-70.2-28.7z"/>
</g>
<path class="st0" d="M46,36.1c0,0,4.6,0.6,4.6,0.6c8.3,1.9,15-5.3,12.9-13.3l0,0c-0.1-0.3-0.3-0.8-0.5-1.5l-0.1,0
	c-0.1-0.3-0.2-0.6-0.3-0.7l0,0c-2-4.1-6-6.9-11.3-6.4c-4.5,0.8-7,4.5-10,7.2c-0.8,1.1-2.7,0.2-2.2-1.2c1.5-3.9,4.2-7.8,3.2-12.4
	c-1.8-5.8-7-8.6-12.5-7.9l0,0c-4.6,0.7-8.4,3.7-9.6,8.8C19.5,13.9,24.1,21,24.1,21l0,0c0.7,1.1-0.8,2.5-1.9,1.7
	c0,0-6.2-6.4-10.5-6.8C6.5,15.8,2.7,18.8,0.9,23l0,0c-0.1,0.2-0.5,2.1-0.6,2.2l0,0c-0.8,4.6,0.9,9.1,5.4,11.8
	c3.9,1.9,8.2,0.5,12-0.1l0,0c0.7-0.2,1.4,0.3,1.6,1c0.1,0.5-0.1,1-0.5,1.3l-4.5,2.5c-14.5,8,0.6,27.8,13,17.8c2.2-2.1,2.9-5,3.3-7.5
	l0.7-4.2c0-0.8,0.9-1.4,1.5-1.2c0.4,0.1,0.8,0.4,0.9,0.8l1.2,5.3c1,7.8,10.4,11,16.4,6.8l0,0c0.2-0.1,1.7-1.4,1.8-1.5l0,0
	c3.3-3.2,4.7-7.9,2.6-12.7c-2.2-4-6.5-5.4-10.3-6.9l0,0C44.2,38.1,44.6,36,46,36.1z M29.1,32.3c0,0.8-0.6,1.4-1.4,1.4
	c-0.8,0-1.4-0.6-1.4-1.4c0-0.3,0.1-0.6,0.3-0.9c-0.2-0.2-0.3-0.5-0.3-0.9c0-0.8,0.6-1.4,1.4-1.4c0.8,0,1.4,0.6,1.4,1.4
	c0,0.3-0.1,0.6-0.3,0.9C29,31.7,29.1,32,29.1,32.3z M32,37.5c-1.2,0-2.1-1-2.1-2.1c0-0.5,0.4-0.8,0.8-0.8c0.5,0,0.8,0.4,0.8,0.8
	c0,0.3,0.2,0.5,0.5,0.5s0.5-0.2,0.5-0.5c0-0.5,0.4-0.8,0.8-0.8s0.8,0.4,0.8,0.8C34.1,36.6,33.2,37.5,32,37.5z M37.6,32.3
	c0,0.8-0.6,1.4-1.4,1.4c-0.8,0-1.4-0.6-1.4-1.4c0-0.3,0.1-0.6,0.3-0.9c-0.2-0.2-0.3-0.5-0.3-0.9c0-0.8,0.6-1.4,1.4-1.4
	c0.8,0,1.4,0.6,1.4,1.4c0,0.3-0.1,0.6-0.3,0.9C37.5,31.7,37.6,32,37.6,32.3z"/>
</svg>
