<?xml version="1.0" encoding="utf-8"?>
<!-- Generator: Adobe Illustrator 26.1.0, SVG Export Plug-In . SVG Version: 6.00 Build 0)  -->
<svg version="1.1" id="Layer_1" xmlns="http://www.w3.org/2000/svg" xmlns:xlink="http://www.w3.org/1999/xlink" x="0px" y="0px"
	 viewBox="0 0 65 65.3" style="enable-background:new 0 0 65 65.3;" xml:space="preserve">
<style type="text/css">
	.st0{fill:#FFFFFF;}
</style>
<g>
	<g>
		<path class="st0" d="M-47.6,36.7c8.3-4.7,8.3-16.7,0-21.4l0,0l0,0c2.5-9.2-5.9-17.7-15.1-15.1l0,0l-0.8-1.5
			C-67.8-9-78.9-9-83.2-1.3L-84,0.2l0,0c-9.3-2.5-17.7,5.9-15.2,15.1l0,0l0,0c-8.3,4.7-8.3,16.7,0,21.4l0,0l0,0
			c-2.5,9.2,5.9,17.7,15.1,15.1l0,0l0,0c4.7,8.3,16.7,8.3,21.4,0l0,0l0,0C-53.5,54.3-45.1,45.9-47.6,36.7L-47.6,36.7L-47.6,36.7z
			 M-82.8,29.5c-4.4,0-8-3.6-8-8s3.6-8,8-8c4.4,0,8,3.6,8,8S-78.4,29.5-82.8,29.5z M-73.4,37.5c-2.6,0-4.7-2.1-4.7-4.7
			c0-1,0.8-1.8,1.8-1.8s1.8,0.8,1.8,1.8c0,0.6,0.5,1.1,1.1,1.1s1.1-0.5,1.1-1.1c0-1,0.8-1.8,1.8-1.8s1.8,0.8,1.8,1.8
			C-68.7,35.4-70.8,37.5-73.4,37.5z M-64,29.5c-4.4,0-8-3.6-8-8s3.6-8,8-8s8,3.6,8,8S-59.6,29.5-64,29.5z"/>
	</g>
	<g>
		<circle class="st0" cx="-64" cy="21.5" r="3"/>
	</g>
	<g>
		<circle class="st0" cx="-82.8" cy="21.5" r="3"/>
	</g>
</g>
<path class="st0" d="M65,32.5C64.8,25,59.9,23,58,23c-0.8,0-2.2,0.3-3.8,0.8c1.4-0.7,2.6-1.5,3.3-2.1c1.3-1.3,3.4-6.2-1.8-11.7
	c-0.1-0.1-0.1-0.1-0.2-0.2c-0.1-0.1-0.1-0.1-0.2-0.2C49.8,4.4,45,6.5,43.6,7.8c-0.6,0.6-1.4,1.8-2.2,3.2c0.5-1.5,0.8-2.9,0.8-3.8
	c0-1.9-2-6.8-9.5-7c-0.1,0-0.2,0-0.3,0c-0.1,0-0.2,0-0.3,0c-7.6,0.3-9.5,5.1-9.5,7c0,0.9,0.3,2.3,0.8,3.9c-0.8-1.5-1.5-2.7-2.2-3.4
	C20,6.5,15.2,4.4,9.7,9.6C9.6,9.6,9.6,9.7,9.5,9.8C9.5,9.8,9.4,9.9,9.3,9.9c-5.2,5.5-3.1,10.4-1.8,11.7c0.7,0.7,2,1.5,3.6,2.3
	C9.5,23.4,7.9,23,7,23c-1.9,0-6.8,2-7,9.5c0,0.1,0,0.2,0,0.3c0,0.1,0,0.2,0,0.3c0.3,7.6,5.1,9.5,7,9.5c0.9,0,2.4-0.3,4-0.8
	c-1.5,0.8-2.8,1.6-3.4,2.2c-1.3,1.3-3.4,6.2,1.8,11.7c0.1,0.1,0.1,0.1,0.2,0.2c0.1,0.1,0.1,0.1,0.2,0.2c5.5,5.2,10.4,3.1,11.7,1.8
	c0.7-0.7,1.4-1.9,2.2-3.4c-0.5,1.6-0.9,3.1-0.9,4c0,1.9,2,6.8,9.5,7c0.1,0,0.2,0,0.3,0c0.1,0,0.2,0,0.3,0c7.6-0.3,9.5-5.1,9.5-7
	c0-0.8-0.3-2.3-0.8-3.9c0.8,1.4,1.5,2.7,2.1,3.3c1.3,1.3,6.2,3.4,11.7-1.8c0.1-0.1,0.1-0.1,0.2-0.2c0.1-0.1,0.1-0.1,0.2-0.2
	c5.2-5.5,3.1-10.4,1.8-11.7c-0.6-0.6-1.7-1.3-3.1-2.1c1.5,0.5,2.8,0.8,3.7,0.8c1.9,0,6.8-2,7-9.5c0-0.1,0-0.2,0-0.3
	C65,32.7,65,32.6,65,32.5z M29.6,31.7c0,0.7-0.6,1.3-1.3,1.3c-0.7,0-1.3-0.6-1.3-1.3c0-0.3,0.1-0.6,0.3-0.9C27.1,30.6,27,30.3,27,30
	c0-0.7,0.6-1.3,1.3-1.3c0.7,0,1.3,0.6,1.3,1.3c0,0.3-0.1,0.6-0.3,0.9C29.5,31.1,29.6,31.4,29.6,31.7z M32.5,36.9
	c-1.2,0-2.1-0.9-2.1-2.1c0-0.4,0.4-0.8,0.8-0.8c0.4,0,0.8,0.4,0.8,0.8c0,0.3,0.2,0.5,0.5,0.5c0.3,0,0.5-0.2,0.5-0.5
	c0-0.4,0.4-0.8,0.8-0.8s0.8,0.4,0.8,0.8C34.6,35.9,33.7,36.9,32.5,36.9z M38,31.7c0,0.7-0.6,1.3-1.3,1.3c-0.7,0-1.3-0.6-1.3-1.3
	c0-0.3,0.1-0.6,0.3-0.9c-0.2-0.2-0.3-0.5-0.3-0.9c0-0.7,0.6-1.3,1.3-1.3c0.7,0,1.3,0.6,1.3,1.3c0,0.3-0.1,0.6-0.3,0.9
	C37.9,31.1,38,31.4,38,31.7z"/>
</svg>
