<?xml version="1.0" encoding="utf-8"?>
<!-- Generator: Adobe Illustrator 26.1.0, SVG Export Plug-In . SVG Version: 6.00 Build 0)  -->
<svg version="1.1" id="Layer_1" xmlns="http://www.w3.org/2000/svg" xmlns:xlink="http://www.w3.org/1999/xlink" x="0px" y="0px"
	 viewBox="0 0 64 63.9" style="enable-background:new 0 0 64 63.9;" xml:space="preserve">
<style type="text/css">
	.st0{fill:#0000FF;}
</style>
<g>
	<g>
		<path class="st0" d="M60.1,25.3L60.1,25.3c-3-1.7-4.5-5.3-3.6-8.6l0,0c1.6-5.7-3.7-10.9-9.3-9.3l0,0c-3.4,0.9-6.9-0.5-8.6-3.6l0,0
			c-2.9-5.1-10.3-5.1-13.2,0l0,0c-1.7,3-5.3,4.5-8.6,3.6l0,0C11.1,5.8,5.9,11,7.4,16.7l0,0c0.9,3.4-0.5,6.9-3.6,8.6l0,0
			c-5.1,2.9-5.1,10.3,0,13.2l0,0c3,1.7,4.5,5.3,3.6,8.6l0,0c-1.6,5.7,3.7,10.9,9.3,9.3l0,0c3.4-0.9,6.9,0.5,8.6,3.6l0,0
			c2.9,5.1,10.3,5.1,13.2,0l0,0c1.7-3,5.3-4.5,8.6-3.6l0,0c5.7,1.6,10.9-3.7,9.3-9.3l0,0c-0.9-3.4,0.5-6.9,3.6-8.6l0,0
			C65.3,35.6,65.3,28.2,60.1,25.3z M22.8,35.8c-4.3,0-7.9-3.5-7.9-7.9s3.5-7.9,7.9-7.9s7.9,3.5,7.9,7.9S27.1,35.8,22.8,35.8z
			 M32,43.6c-2.5,0-4.6-2.1-4.6-4.6c0-1,0.8-1.8,1.8-1.8s1.8,0.8,1.8,1.8c0,0.6,0.5,1.1,1.1,1.1c0.6,0,1.1-0.5,1.1-1.1
			c0-1,0.8-1.8,1.8-1.8s1.8,0.8,1.8,1.8C36.6,41.6,34.5,43.6,32,43.6z M41.2,35.8c-4.3,0-7.9-3.5-7.9-7.9s3.5-7.9,7.9-7.9
			s7.9,3.5,7.9,7.9S45.5,35.8,41.2,35.8z"/>
	</g>
	<g>
		<path class="st0" d="M39.1,25.9c-1.2,1.2-1.2,3.1,0,4.2c1.2,1.2,3.1,1.2,4.2,0c1.2-1.2,1.2-3.1,0-4.2
			C42.1,24.7,40.3,24.7,39.1,25.9z"/>
	</g>
	<g>
		<circle class="st0" cx="22.8" cy="28" r="3"/>
	</g>
</g>
</svg>
