<?xml version="1.0" encoding="utf-8"?>
<!-- Generator: Adobe Illustrator 26.1.0, SVG Export Plug-In . SVG Version: 6.00 Build 0)  -->
<svg version="1.1" id="Layer_1" xmlns="http://www.w3.org/2000/svg" xmlns:xlink="http://www.w3.org/1999/xlink" x="0px" y="0px"
	 viewBox="0 0 320 335" style="enable-background:new 0 0 320 335;" xml:space="preserve">
<g>
	<g>
		<path d="M-570.99,215.31c40.87-23.13,40.87-82,0-105.13l0,0v0c12.54-45.25-29.09-86.88-74.34-74.34l0,0l-4.13-7.31
			c-21.31-37.65-75.55-37.65-96.86,0l-4.13,7.31l0,0c-45.25-12.54-86.88,29.09-74.34,74.34l0,0l0,0c-40.87,23.13-40.87,82,0,105.13
			l0,0l0,0c-12.54,45.25,29.09,86.88,74.34,74.34l0,0l0,0c23.13,40.87,82,40.87,105.13,0l0,0l0,0
			C-600.07,302.19-558.45,260.57-570.99,215.31L-570.99,215.31L-570.99,215.31z M-744.14,180.18c-21.82,0-39.5-17.68-39.5-39.5
			s17.68-39.5,39.5-39.5c21.82,0,39.5,17.68,39.5,39.5S-722.32,180.18-744.14,180.18z M-697.89,219.43
			c-12.78,0-23.17-10.4-23.17-23.17c0-4.88,3.95-8.83,8.83-8.83s8.83,3.95,8.83,8.83c0,3.04,2.47,5.52,5.52,5.52
			c3.04,0,5.52-2.48,5.52-5.52c0-4.88,3.95-8.83,8.83-8.83s8.83,3.95,8.83,8.83C-674.72,209.03-685.11,219.43-697.89,219.43z
			 M-651.64,180.18c-21.82,0-39.5-17.68-39.5-39.5s17.68-39.5,39.5-39.5c21.82,0,39.5,17.68,39.5,39.5S-629.82,180.18-651.64,180.18
			z"/>
	</g>
	<g>
		<circle cx="-651.64" cy="140.68" r="15"/>
	</g>
	<g>
		<circle cx="-744.14" cy="140.68" r="15"/>
	</g>
</g>
<g>
	<g>
		<path d="M-45.98,160.72l-84.52-47.84l25.94-93.59l-93.59,25.94l-47.84-84.52l-47.84,84.52L-387.4,19.3l25.94,93.59l-84.52,47.84
			l84.52,47.84l-25.94,93.59l93.59-25.94l47.84,84.52l47.84-84.52l93.59,25.94l-25.94-93.59L-45.98,160.72z M-331.73,141.09
			c0-21.82,17.68-39.5,39.5-39.5s39.5,17.68,39.5,39.5s-17.68,39.5-39.5,39.5S-331.73,162.91-331.73,141.09z M-245.98,219.84
			c-12.78,0-23.17-10.4-23.17-23.17c0-4.88,3.95-8.83,8.83-8.83c4.88,0,8.83,3.95,8.83,8.83c0,3.04,2.47,5.52,5.52,5.52
			s5.52-2.47,5.52-5.52c0-4.88,3.95-8.83,8.83-8.83s8.83,3.95,8.83,8.83C-222.81,209.45-233.2,219.84-245.98,219.84z
			 M-199.73,180.59c-21.82,0-39.5-17.68-39.5-39.5s17.68-39.5,39.5-39.5s39.5,17.68,39.5,39.5S-177.91,180.59-199.73,180.59z"/>
	</g>
	<g>
		<circle cx="-199.73" cy="141.09" r="15"/>
	</g>
	<g>
		<circle cx="-292.23" cy="141.09" r="15"/>
	</g>
</g>
<g>
	<g>
		<path d="M159.5,6.5c-88.37,0-160,71.63-160,160s71.63,160,160,160s160-71.63,160-160S247.87,6.5,159.5,6.5z M73.75,146.88
			c0-21.82,17.68-39.5,39.5-39.5s39.5,17.68,39.5,39.5s-17.68,39.5-39.5,39.5S73.75,168.69,73.75,146.88z M159.5,225.62
			c-12.78,0-23.17-10.4-23.17-23.17c0-4.88,3.95-8.83,8.83-8.83s8.83,3.95,8.83,8.83c0,3.04,2.47,5.52,5.52,5.52
			s5.52-2.47,5.52-5.52c0-4.88,3.95-8.83,8.83-8.83s8.83,3.95,8.83,8.83C182.67,215.23,172.28,225.62,159.5,225.62z M205.75,186.38
			c-21.82,0-39.5-17.68-39.5-39.5s17.68-39.5,39.5-39.5s39.5,17.68,39.5,39.5S227.57,186.38,205.75,186.38z"/>
	</g>
	<g>
		<circle cx="205.75" cy="146.87" r="15"/>
	</g>
	<g>
		<circle cx="113.25" cy="146.88" r="15"/>
	</g>
</g>
<g>
	<g>
		<path d="M682.28,127.65L682.28,127.65c-15.23-8.62-22.63-26.49-17.96-43.35v0c7.91-28.56-18.36-54.83-46.91-46.91h0
			c-16.86,4.67-34.73-2.73-43.35-17.96v0c-14.6-25.79-51.75-25.79-66.34,0v0c-8.62,15.23-26.49,22.63-43.35,17.96h0
			c-28.56-7.91-54.83,18.36-46.91,46.91v0c4.67,16.86-2.73,34.73-17.96,43.35h0c-25.79,14.6-25.79,51.75,0,66.34l0,0
			c15.22,8.62,22.63,26.49,17.96,43.35v0c-7.91,28.56,18.36,54.83,46.91,46.91h0c16.86-4.67,34.73,2.73,43.35,17.96v0
			c14.6,25.79,51.75,25.79,66.34,0v0c8.62-15.23,26.49-22.63,43.35-17.96h0c28.56,7.91,54.83-18.36,46.91-46.91v0
			c-4.67-16.86,2.73-34.73,17.96-43.35l0,0C708.07,179.4,708.07,142.25,682.28,127.65z M494.64,180.7c-21.82,0-39.5-17.68-39.5-39.5
			s17.68-39.5,39.5-39.5c21.82,0,39.5,17.68,39.5,39.5S516.45,180.7,494.64,180.7z M540.89,219.95c-12.78,0-23.17-10.4-23.17-23.17
			c0-4.88,3.95-8.83,8.83-8.83c4.88,0,8.83,3.95,8.83,8.83c0,3.04,2.47,5.52,5.52,5.52s5.52-2.47,5.52-5.52
			c0-4.88,3.95-8.83,8.83-8.83s8.83,3.95,8.83,8.83C564.06,209.55,553.67,219.95,540.89,219.95z M587.14,180.7
			c-21.82,0-39.5-17.68-39.5-39.5s17.68-39.5,39.5-39.5c21.82,0,39.5,17.68,39.5,39.5S608.95,180.7,587.14,180.7z"/>
	</g>
	<g>
		<path d="M576.53,130.59c-5.86,5.86-5.86,15.36,0,21.21c5.86,5.86,15.36,5.86,21.21,0c5.86-5.86,5.86-15.36,0-21.21
			S582.39,124.73,576.53,130.59z"/>
	</g>
	<g>
		<circle cx="494.64" cy="141.2" r="15"/>
	</g>
</g>
</svg>
