<?xml version="1.0" encoding="utf-8"?>
<!-- Generator: Adobe Illustrator 26.1.0, SVG Export Plug-In . SVG Version: 6.00 Build 0)  -->
<svg version="1.1" id="Layer_1" xmlns="http://www.w3.org/2000/svg" xmlns:xlink="http://www.w3.org/1999/xlink" x="0px" y="0px"
	 viewBox="0 0 300 304.8" style="enable-background:new 0 0 300 304.8;" xml:space="preserve">
<style type="text/css">
	.st0{fill:#0000FF;}
</style>
<g>
	<g>
		<path class="st0" d="M270.8,204.8c38.9-22,38.9-78.1,0-100.1l0,0l0,0c11.9-43-27.7-82.7-70.8-70.8l0,0l-3.9-7
			c-20.3-35.9-72-35.9-92.3,0l-3.9,7l0,0c-43-11.9-82.7,27.7-70.8,70.8l0,0l0,0c-38.9,22-38.9,78.1,0,100.1l0,0l0,0
			c-11.9,43,27.7,82.7,70.8,70.8l0,0l0,0c22,38.9,78.1,38.9,100.1,0l0,0l0,0C243.1,287.5,282.7,247.9,270.8,204.8L270.8,204.8
			L270.8,204.8z M106,171.3c-20.8,0-37.6-16.9-37.6-37.6S85.2,96.1,106,96.1s37.6,16.9,37.6,37.6S126.7,171.3,106,171.3z M150,208.7
			c-12.2,0-22.1-9.9-22.1-22.1c0-4.7,3.7-8.4,8.4-8.4s8.4,3.7,8.4,8.4c0,2.9,2.4,5.2,5.2,5.2s5.2-2.4,5.2-5.2c0-4.7,3.7-8.4,8.4-8.4
			s8.4,3.7,8.4,8.4C172,198.8,162.1,208.7,150,208.7z M194,171.3c-20.8,0-37.6-16.9-37.6-37.6s16.9-37.6,37.6-37.6
			s37.6,16.9,37.6,37.6S214.8,171.3,194,171.3z"/>
	</g>
	<g>
		<circle class="st0" cx="194" cy="133.7" r="14.3"/>
	</g>
	<g>
		<circle class="st0" cx="106" cy="133.7" r="14.3"/>
	</g>
</g>
</svg>
